<mxfile host="Electron" agent="Mozilla/5.0 (Windows NT 10.0; Win64; x64) AppleWebKit/537.36 (KHTML, like Gecko) draw.io/24.7.17 Chrome/128.0.6613.36 Electron/32.0.1 Safari/537.36" version="24.7.17">
  <diagram name="Page-1" id="5Z3HqwsG-XnmFZZJjFht">
    <mxGraphModel dx="1687" dy="984" grid="1" gridSize="10" guides="1" tooltips="1" connect="1" arrows="1" fold="1" page="1" pageScale="1" pageWidth="850" pageHeight="1100" math="0" shadow="0">
      <root>
        <mxCell id="0" />
        <mxCell id="1" parent="0" />
        <mxCell id="W_Ust1E5zeHQnDOJcLUH-2" value="" style="shape=image;verticalLabelPosition=bottom;labelBackgroundColor=default;verticalAlign=top;aspect=fixed;imageAspect=0;image=data:image/png,iVBORw0KGgoAAAANSUhEUgAAAqgAAAIACAIAAADBlQmIAAAgAElEQVR4Aey9C7BXxZU3SoxEfKOCKOZL7shDJ7miaETgoKiI+AxERFETNYjGJ8a3Ir5AiC/QqCgYlSAmplAe+Uhl7ldz69bUlDOft0ycqny3bpm5YzBfJjMl1Ey8p+RaJjPFzWFxfmexeu/evbt77977/1/WqWP/V69evfq3Vvfqtdf+HwaNOGqs/lgQuGDTLPrJ5Bl9zEmZdCU6IqAAOgJFbDu399APRimAgMKvERFA0zp+KrVoVET0al5174Tp9FPzvGK6VAAOOuKLx9DPiKPGavuILx4jcOCB38RnzLFfE/wmjylTeYDJmGO/hjbBonhacEBoAQ8BqBh676nRx5zkPVb4Kqwj6LHkN1BOe/cvAn/avZNq/w4SFxD9KBDggV90jThqbKr7mqlJSykKYCnD8dBCAxXAUgCazBEBNK1jTtdhlIjo1YwMAn/N84rpUgHYl/HT/VR/ZyLAA7+JFTL+zLEmv1IEApRvKXqOCPDQQkiqBwqPckQSoyJ6oGkdzFJWq6bxr1y1NnMtEdHLlF8dDgj8Nc8rVpRq/2rGX/CKAw/84rKmGb8JSFlKqgtvWT0bws9DC6mkAAaaJiKApnUCdWvO8JWr1mYqExG9TPnVERH4q5vCRXIqALXG3/eKA93CqIQm2jzwmzU23Ncyx5r89rm6kL+9NULhJ/XYDqEF/paqRljPemvYL1rjhy9ZbMozfs7f3v2LwF+Dj1nOilT7VzN+zfgLEHC5t3rzpLrweiucdiACP9RQAAGFXyMigKZ1/FRq4CjN+CsySkT3K6Wh1vj7vstAN7LM3yLjFzzI+AXdLlN7gUB7a4QNsbh6IHzJzyLqgS648Yyf87cXPTPj5+uqrZ1q/2rGX5Dv8sBvXqlS3ddMTVpKUQADDacAKoCBCIQMb6/7IfCHLD98bCoANePXjL8AgcCMyn53bm/GYF9Xbb2pMoZKvaI29I744jHqgSFotxc9BP60npxq/2rGrxl/AQLht1qLhFQXXotK7epSAAPtpQCGANhe9BD4Q5YfPjYVgJrxF+S7/FG/eTdMdV8zNWkppb0ZQ0ieFHGsemCg56sHhnhje9FD4A/0nxD0Rhw1NtX+1Yy/IN/lgd+836W6r5matJSiAAYaTgFUAAMRCBneXvdD4A9ZfvjYVABqxq8ZfwECld6I25sxBN70Y6GaKmOIpX9yOeqBIZ7cXvQQ+NN6YKr9qxm/ZvwFCITfai0SUl14LSq1q0sBDLSXAugCoH6P3wUlD55U7rc78NOth/TWNsfBfNTP8aH7GufXNsensI2MQXErxAqZGceKDg6/sVxO17Zx8iqGFh/A9/gFT3v3r8j4xboy91oVPKn2r2b8BfmuGfjJ/PQbpwYnatsdAQXQHatMTgUwExZ3ogLogpVm/C4oefCkcj+t8RdUuHngp5yA/05VoeE6tLqNjKHVq0B+UP8q1AMDMVcPdPFeZPwC7faiJzJ+sS4XTKLwpNq/mvFrxl+AgMc11n1Iqguvu4YN51QAAw2kALoAqBm/C0oePKncT2v8uzN+shnd+3ibZ/ycTm2t8ZuYmBhaeJAxWHhws1YeE1s6OEy6YuWICU5eR34CVn2ScGjv/hUZf6r9kmr/asZfkO+agR87f8RRY3FqcKK23RFQAN2xyuRUADNhcScqgO5YmZztRQ+B31xUnZRUAGqNX2v8BQhQJlTRb2QMFclHZtap8lPVCDsGT/XAkD3SXvQQ+NN6cqr9qxm/ZvwFCFR6/0114a10UXUKVwAD0VYAQwBsL3oI/CHLDx+bCkAN/AVhTx/1hzu3RUIqv7eo1K4uBTDQXgpgCIDtRU8Df0HkC3GLDhirgb9SI7b34KgUFnfhCqA7VpmcCmAmLI7E9qLX7YE/bYWj+bPzwG9qm6pCY2rSUkp7a4QhlVHvsTu399APJKgHBnp+RA80rROoG6ycXI5+j78iW6Tav/qov+CBBw/85i24vRdecy1JKApgKdh5aKGBCmApAE3miACa1jGnaylFv8dfkeEiul8pDTXwa+AvQKCUP5VlTuX3ZfVsCL8ZWhTAQNNEBNC0TqBuzRmugb8iW0R0v1IaauAvCHua8Zfyp7LMqfy+rJ4N4TdDiwIYaJqIAJrWCdStOcM18Fdki4juV0pD/R5/wbfYeeA3K22pKjSmJi2lRKywthSBUrVDHlpoveqBgXaP6IGmdQJ1K+Ublc6lNf6KbJFq/2rGrxl/AQKlLpJlmVNdeMvq2RB+HlpIJQUw0DQRATStE6hb84dHRK/mxXb7W/01w9266XjGbyrfXr8315KEogCWgt0MLQpgKQBN5ogAmtYxp+swSkT0akZGA3/KhK9mY3tMp4HfAzT3Ie09ONzXGJHTDC0KYCC8EQE0rROoW/OHR0Sv5sVq4O8L/FQfIui1zXEwAz/Hhyo0nF/bHJ/CNiqsilshViOOGstDC/HTyesyVnkyfQyhKxwfbp3MuYjYSedte/cvAn+43UNsnWr/ao2/4IGHGfixe/Vf5+NQ+LVx7PoN77ZRZmhRAAN9ICKApnUCdWv+8Ijo1bxYBP6a5xXTpQJQA78G/gIEhKfG/ZjK7+OuojZpZmhRAAPBjwigaZ1A3Zo/PCJ6NS9WA3/Kc79mY3tMpxm/B2juQ9p7cLivMSKnGVoUwEB4IwJoWidQt+YM1+/xV2SLiO5XSsPdGX/aOgdp3EwdzMDP9dQaf6Dt2lsjxDbj/lB1m4cWmosOjqrn7WD5OHnD18itE7gvmvYeAL7HL9bV3v2LjD/c7gKTUrZLtX/1UX/BAw8z8OPE1xo/h8KvjWPXb3i3jTJDiwIY6AMRATStE6hbc4Zrxl+RLSK6XykNNfBr4C9AoJQ/lWVO5fdl9WwIvxlaFMBA00QE0LROoG7NGa6BvyJbRHS/Uhpq4C8Ie5rxl/Knssyp/L6sno3lVwADTaMAugCogd8FJQ+eVO6ngV8DfwECHt7sPiSV37tr2HBOBTDQQApgCIDtRQ81/pDlh49NBaAG/oKwpxl/uHNbJKTye4tK7epSAAPtpQCGANhe9DTwF0S+ELfogLEa+Cs1YnsPjkphcReuALpjlcmpAGbC4khsL3oa+DXw2xDQwO94BPixtffg8Ftv9FEKYCCkCmAIgO1FTwO/LeyF+ERnjNXAX6kd23twVAqLu3AF0B2rTE4FMBMWR2J70dPAvzvwHz5yDIytbYLi8JFjEPgzMRl9zEmZ9BFHjVU6MLT4FR0cipULVpk8OHkVw0x8LL5HXaPGnljIo9jmYdve/csDf0L7ptq/+nJfwQMPBH6cDrwBs3Gitt0RUADdscrkVAAzYXEnKoAuWOnX+VxQ8uBJ5X6DRh9zkv5YEEDgz+Q54aSpmXQlOiKgADoClcemAOYh40hXAF2AWrlqbSZbe9FDxp+5rtqIqQDUjF8z/gIEPK6x7kNSXXjdNWw4pwIYaCAF0AVAzfhdUPLgSeV+A4E/YZ0DeDVQB2T8mbppjT/QduT3mdjqexIu2OLgUAwJrrI4aI3fBTcK/Ca27d2/yPjTnjOp9u9A4Mcpow2OAAI/J6INs4GijVIIKICl4DKZFUATk1IUBdAFLs34XVDy4Enlfhr4Cx50a+D38Gb3Ian83l3DhnMqgIEGUgBDAGwvejzjD0EgcGwqADXwa+AvQCDQs+3DU/m9XasW9SqAgcZSAEMAbC96Gvh3f+Oc6jf6WyCAjF/QqTKEGn9mL6pH2puHAFVY83qVXoiAemDgLlMPLPQxC8LtRY8H/hAEAsem2r+a8Rfkuwj8mffi9l54M5dTP1EBDMRcAVQAAxEIGd5e9+OBPwSBwLGpABwI/HRzMZfR5XQE/kwccF9T3DLxQa6Qh4/p935y8uR3PB0AKm5k67I48Lf6ubeUldOd/HA/QNcWHPICf836A8Ca5x0I/LCcNjgCCPyciDbMBoo2SiGgAJaCy2RWAE1MSlEUwFJwCeb2opcX+MUCq/6YCsC+wE93Df2diQACf2YvMv7MXsW2EIH21giTWHzn9h76wezqgYU+BqwyOSN6oGmdzBnt+jSzl3+Pn2sYEb2aseKBn6+o5naq/asZv9b4CxCo9M6b6sJb6aKqE47QgikUQEDh14gIoGkdP5UaOEq/x1+RUSK6XykNBwI/3XTMwV1OFxm/wAf3NUHH7VXpdv8x/d7O3+V4mqEFACpu5BtlcYhY4zet0zHngBn4CWe4HzZmWfxT8fOMH8rXby8AWDMOA4GfL17bQACBHxTegNk4UdvuCCiA7liNOGqsGVoUwFIAmswRATStY07XUooZ+GkhEdGrGZm8wF+zGqkA1Br/GNzy6M4lfiPwCzqNQsaf2WuXrL0jjhrb3hphEosjtGB29cDAfRTRA03rBOoGKyeXozX+imyRav9qxl9Q4Ubgz7wJprqvZSrTRqICWMpqCC0YpQACCr9GRABN6/ip1KJREdGredWa8e+OfOaNhizR5XQE/kwcMu9rihth5YIDz7dc+LkVupAfoQU44OQFBdlhF+KDtXM07DhwD6RRdn4uWfAL63jLEatoshyOXpP15FYjPXngF3asE/9U+1czfs34CxCgfVLRb/h9RfI7TCxCC9alAAIKv0ZEAE3r+KnUolER0at51Tzw1zw1ny4VgFrj1xp/AQLi/svvzuFtnjGES+t4CQgtWGnmMyf0Vmq7zpglogea1ul4/COiVzNWPPAn9ORU+1cz/oJ8F4/6+TUN7VT3NSjQ9oYCWMqCCC0YpQACCr9GRABN6/ip1KJREdGredU88Nc8NZ8uFYADgd+89ZB+XU5H4M/EIfO+prgRVi448IzBhZ9boQv5EVqAAw4OUJA5dSE+WDtHw44D90AaZefnkgW/sI63HLGKJsvh6DVZT2410pMHfmHHOvFPtX8HAj/Bob8FAgj8gk4fYbbMXiUWIqAAFkLEGRBaQFQAAYVfIyKApnX8VGrgKP0ef0VGieh+pTTUGn9BhRuBn98Z0c7M+NErbo5KNxHgGYPZqxSBAEIL6OqBgbssogea1gnUDVZOLke/x1+RLVLtX834tcZfgECpi2RZ5lQX3rJ6NoQfoQX6KICAwq8REUDTOn4qNXCUZvwVGSWi+5XSUDN+zfgLEKg024iYb1WqZ0X3/bI6I7RAn1QZQ1nNG8sf0QNN6zR21fAfRw014y+LmCN/qv2rGX9BvotH/Zn3qVT3tUxl2khUAAOtpgAqgIEIuAzXjN8FJQ+eVPtXZPxjcu4p3UtH4N+FjMSh/74m6f33aKWPzcQN+OTkW4pbAW7Yp/0e6Mrfj7zyEwL0r0Wov3n6Q3v3r/lWP/bUiKPq84dU+1czfs34CxDwuMa6D0l14XXXsOGcCmCggRTAEADbix4P/CEIBI5NBaDI+Hffgtndp9spe2b8Eo0972uyd8/sSnszEMjJGDI41SczEWiaBx5y6nn7XzJ/n9se2uuJlwa9+EZzfvZ+5Jl9r73jwAsvP+ykqRxJ9UCORtl2e9Hjgb/sqiPyp9q/mvEX5LsI/Jk3u1T3tUxl2khUAAOt1igA97/sulMfWnHDLQ8sueb2V+Zev372vOb8PPfNm++84d4r7lj8xcdX73/FDYC9UQBCq7Y02oseD/wJ0U4F4KDDRw7UM6jNf1POyindxo/Ab4Jw+MgxdF8zuxQ3Rz8ZNfZEjp7i5ogbQCMAk+N26PhT91r+ypy7lr759W9tmHrhpkkzNo+funlcj/j56bgpgkIf66CfdMbGyedsOH3m63OunXXPsr2XPEt5m/DAsvh3Ob9AL7kfYl8U2gWBnw+pX/9U+1czfs34CxCo9Dqc6sJb6aLqFN4EAIePPmHQi2+snz1vw/SLNx9/2k/HTWnyz6ZTpq+feeUdN9w7+P4nRhw1tgkA1ukwcedqL3oI/HEBKSstFYBa4y/4FjvP+Ok+yH+nqtBwHVrdbm+NMGKdL8SCTfDAwfc/cctN97913mWbx/VQ7t783+tnXvWVZS8cOPtq9UAXT9bv8bug5MGTav9qxl+Q7yLwZ17lUt3XMpVpI1EBDLRacgD3v+y68Y8+t37WVZvHNz3X588hNp0y/Xvf/u6Q518fOf2iQBN0w3D9Hn9FVk61f7XG3/eKA34o98LHw0eOQeDnRLS1xk9QmLg50ttbI4QP8IY3DlwI8gZBzKSnqhGSbiOOGjvk+ru//d2HN0y9kBfv66jZGy8Q4HkD18TyDsFb51wy5aGnh188zwVnrNdkzrRLh/GvXLWWLxx+3t79i0f9mevixErtm2r/asavGX8BAhVddUlsqgtvpYuqU3hyAAcvfHzRtXdtmng2z6db0d5w5qy5dy4Zeu0dddqrpXNpxl+R4VLtX63xa42/AAG63Vf0WyusyCf8EE5VI4S2ey1/5aXLrt88fmrz6/pCw409595+w33737EYawm0RQfL0Rp/Rb6Rav9qxl+Q7+JRf+aNL9V9LVOZNhIVwECrJQeQ3udvRYovlNx0yvSH5t+x7653+wOt0LXDk7ufN/J41O8tIcrAVADurvGLkoZ+BAII/KDwhihx8S5tuyCgALqgZOFJDiAFfrOs3nwKAr8FXu2yI5Dc/ezqWXoR+C08NXSlAlAzfs34CxCIcrHNE5LqwpunT+voyQHUjL91PhNR4eTu570WBH5vCVEGpgIw461+qlTRZUfbZsbPMeFv9XO6th39BzV+R35U2pSffIwyhoT+hoyfv8kv2u+vXvPJ737/9vwFRP/lwsWffrTtlwuX4KmA4Dfp769e86dPdry/eg11FfKLN/wz+UXGnxBDcuY2+nZ79y8P/AnxT7V/NeMvyHcR+DPvd6nua5nKtJGoAAZaLTmALhn/bzdu+c8//vHXq9dQlf3Xu6I4PorSe+ZHjyGZcjgRgT/QBN08PLn7eYPPA7+3kPCBqQDUGv/Al/hx7+MNBH5ORDtVhQYKtL2hAAZaMDmAyPiRppuNbe+8u3Pnzg83bqEu8dHkNyki4zcZPCgI/IEm6Obhyd3PG3wEfm8J5sAhqx8BsXfCdLQtjVQAasavGX8BAuG3WouEVBdei0pN7tq5vYd+oGRyAF0y/t4Ptn72h497P9j603FT/m7+gh2/+/2O3/1++zu/+Om4Kb9cuORPn+zYues//lSg94Otn3607Z//6n/fuXNn7wdbecb/241bdu7c+duNW346bsqvV6/5zz/+kYaT/J+OmyLG8iyftxH4AWZgw7ROoMDmDNfv8bvYYsjqR8DWO2E62pZGqv2rNf7d32KnS5lZ5zMzfs6jNf483Bzp7a0R4hbP/aHqNkIL6sGUMVQ9r0U+Mv7MOvrmcT1/N3/Bpx9t+9e/eZvq+lTgp49vz19AmTqN7f1g658+2UG1f2p//H//mhiQ8VPj17uK/bz99q5Zej/YunlcjxibV+9H4Hf0VWCex8+tk8fTUjq+xy/0b+/+RcZv8W1abKHdgQky/hFHjUXGb5efav9qxl+Q7yLwZ97aUt3XMpVpI1EBLGU1hBaMSg5gYcb/y4VLPvvDx79evab3g62/3bjltxu3UAb/2R8+/uXCJTwF/+3GLRT4KWtHmzL7P32ygxgo1yceZPk/HTcFw3GB4MLNNgI/wAxsmNYJFNic4Zrxu9iifRk/rjbaEAgg8As6fUxVoclUpo1EBbCU1RBaMCo5gMj486rs769esyvGL/5wV8jv/WDrhxu3/HLh4s/+8DG9pU8lfzztJyI9rscjgff3fKRPc/V+sJVG4feuu8JiMTZPMQR+gBnYMK0TKLA5w8Xf6odiyd0PmpRtIOMvO9DCj4z/8JFjkPFb+A8fOSYVgJrxa8ZfgIDLVdebJ3nC6q15koEILZg9OYCFGf9vN2759KNtfzd/AaX+9MCfnv//duOW7e/8Apn99nd+gTI/Be+/2/UNQNTyf9t3Y+h7J4CS/t4PtvKMHzm9GAu6aCDwA8zAhmmdQIHNGa4Zv4stNOMveFXefglqVK9m/JWaI9WFt9JFVSccoQVTJAewMOOn8IwcncrwVInf9s67295599OPtr3ddy3oy9TxGEBk7ajxbx7X8+HuisBiegyALwv82z/86pcLF5NkkpmX6xMdgR9gBjZM6wQKbP7w5O7nDVH0jH/I6kfoh9J9kl+oXioANeMvyHcR+DNvfMnzrUytWkRUAEsZC6EFo5IDaM/4KbOnF/ipDI8K/fZ3fvHpR9v+8ZV19FY/5f1I4kXWzt/qx3v7fzd/AX+rf8fvfk8vDYixItHHRwR+gBnYMK0TKLD5w5O7nzdECPzeEsRABH56s4/kCx7zYyoA9Xv8BQ8nEPgz726p7muZyrSRqACWshpCC0YlB7Aw47en3Ql7EfgBZmDDtE6gwOYPT+5+3hAh8HtLEAMR+DXjL0imzetPAykI/Jm6pbqvZSrTRqICWMpqCC0YlRxAe8aP9LqBDQR+gBnYMK0TKLD5w5O7nzdECPzeEsRABH7N+AuSaXFjauZHBP5M9dp74c1cTv1EBbAU5ggtGJUcQM34YQvTOujq1EZy9/MGFoHfW4IYiMCvGb9m/J2AgLjYxv3Y3owhLg6O0hBawJ8cQM34YQvTOujq1EZy9/MGFoHfW4IYiMCvGb9m/J2AgLjYxv3Y3owhLg6O0hBawJ8cQM34YQvTOuhqe0O/x19oQQT+lmX89IcJ6RajbeDAH/Xjigd86E/2mnT6M41KL8SBMgbgWcgPu3QntggtwAEpVyoM91r+ykuXXb95/FT6s7uo5dMfyqWPzWxv7Dn39hvu2/+OxbF8CdZJZYvq5sWf7BVYtXf/8ow/Cm4I/GbGb5Gfav/qW/0FSTkP/OalL3m+ZarULooCWMpePLTQwOQADl74+KJr79o08eyE7+f7Tb3hzFlz71wydP7tpUxgYTatY2FuV5dm/IX2QuBvWcaPq5w2OAII/JyINu5roGijFAIKYCm4EFowKjmA+15/z7e/+/DGqRci129L461zLpny0NPD51wDMAMbpnUCBTZnuP7lvkJbIPCbGb9lbKr9O2jU2BP1x4IAAn8mz/EnnpZJV6IjAgqgI1B5bMkBPOTKm8c/+tybs67e8rUzfzZ+alt+/uukc7737e8Oef71oy+8PA9bpQOBlavWos0byd2PK1OqjUf9pUZZmBH4R4090V14KgAH/nKfpQ6BC0sX8iDwZ65da/yBvkEX3kxstd7vgi0yhoQYDr7/iVtuuv+t8y5rZi0/8z2D9TOv+sqyFw6cfTX9w7IEdUIMXWzdQJ727l/E5ljnDAK/mfFb/CrV/tUav9b4CxAoLG6FMCQvUYco34SxTQBw2Kjj6d3+t6ZfvPn4U/0q7rWN2nTK9PUzr7zjhnsH3/9Ewn8erQnOE65DE9zPbxUI/H7DzVEI/KVq/Pwf9DNlVkcZyPhxndQGRwAZPyeijfsaKNoohYACWAouk7khAB524ml7LX9lzl1L3/z6tzZM/fqmSTM2n3h6o4r9m086Y9PkczacPvP1OdfOumfZ3kueJTAbAqBp2VZQ2oseAn8snBH4zYzfMgX/B/0sbNG7NOMvyHcR+DMvX+298GYup36iAhiIeaMA3H/udac+tOKGWx5Ycs3tr8y9fv3seaV+Nk6a4Zj3v3n+5aUkr58977lv3nznDfdeccfiLz6+ev8rrgfsjQIQWrWl0V70EPhjQY3A35qMnyoQ+jsTAR74UQ0CJ2r8oJg8SrEgQBVWRc8bgaZ54CGnnrf/JfP3ue2hvZ54adCLb7j/9Dz09PpvfHvTKWfj7wHQGwOZvzdMv3jaoqfchQ968Y29H3lm32vvOPDCyw87aSpHWz2Qo1G23V70EPgtp1MpNPICv10+Peq381TRqxm/ZvwFCMS6EWfKaW/GkLmc+okdA+A+tz981qKn1s+6atOEswrz/g2nXTD/1ge/cPej4YB3DIDhUHhIaC96CPweq84ckhf46QFA4ZBSzwkypZUiao2/4M/pI+PPrLK0t8SVuZz6iQpgIOYdA+Dhf3HcF+793gX3Pfbm17+1+eRp9vcDNp1y9tJ5t33u+2sD0Rtx1NiOATAcCosE/R6/BRzqQuA3a/y9E6bz4ajr8yHmKD4kelsz/oJ8F4E/8z7V3gtv5nLqJyqAgZh3EoDDjjlx7weXX3zX0jcv/Obmk86w5v1Tfjzzyi89+YNDdz23D8GwkwAMwcE+Vv9ynx2fw0eOQRQ3c/feCdP5cLzJz4eYo/iQ6O2+jL9UJaPb+HngN9fetAqrqWHDKe2tETZk13SYBx523KTPL33+m7cvfvP8y/nf/zcr/W/NuGTqgysOnPnNQA9XD3TxZP63+jl/e9HDo/5A/wEaPIpDOPVSxs85qY0hpIMYBf5YGnI5mvFrxl+AQPTLJheo+RZHw6PdeQAeetLUvZ58af6tD7553mWWvwqw4fSZV9328JAb7/MAjQ/pPAD56mK1NeMvRBJR3MzdG5rxU/2A7hdmLaHL6SLjF/gg3xJ03K2Ubvcfs8Jq51c8BT4AUNABVBvph0ye8bnvr7355vvfOudS/tcAeeF/08QZD8+/4/PLVmKl1Ci7XspZhRDdvwCE8DRr/ESH+wl+fESjrF2q5kd6DQ2p4T0vAr9Zrec1fioK0Fx8CL8ucJW89eFCTH/WjL8g3+WB37z0abpgYlKKogCWgstk7lQADz79gkEvvnHX9fe+NeOS7GL/8aeunT1vxIpXD/vKBBMWd0qnAuiOQAhne9FD4A9ZPh+LKM5DODE0NOOnO4X+zkSAB37cm8CJjB8Uk0cpFgTaWyNsiMU72AMPOnv2oBffeODaO/v+EvC4HvP7/W+dO3fyw88cfNY3QmyhHtid6CHwW06nUsjkBX56AMBnwXf3MYR6oRLNK94M4BLC25rxa8ZfgAC/1UZvtzdjiA6Fn8DOBvDACy8f8vzrS+fdtuGs2Wbev+HMb1xxx+L9rrqFoBN5lSOenQ2gIwjebO1Fj0dZ7+XzgYjiIuMXE3E23haj6COXH7c98GIBoGAAACAASURBVD1+83bDax68t6voloyfvgTMkaF2V+GDSpIfDjzfUtw8/AdFVj/8+ahm4n/A7KuHfn/t8isXbJj2DV7v3zyuZ9OkGfdfdxf9WztmXoWsyL4u7oEe+Af6f/Px5xqa+HD07Djb5fDeeuQgHjv6CdfQxIF/nY/0R77OJxpx1FgEe5oX3+kXgd/bnwv1pHk14y/Id3ngN+9c7b3wmmtJQlEAA2HvBgD3v+w7Ryx/ZeUVN244Y+Yeef/xp7586XVDn/nhsFHHe2dI3QBgoI9ZhrcXPcRjy+pKdSGi0yg8fxITCTZ8p18Efm9/dtRZv8c/Bjc+8650+MgxPPCbnB1cYc1Ew0QgkMIzhnpm7LBZusQD97vqlv/liZdenfudDVMv5PX+N8+//MQlzw2dco4lQ7JbXD3Qjo+9t73oIR4HnmDAh0d0uzeixn/4yDF8/0IlkolnBrE05HI049eMvwABxyukH1t7Mwa/9QaO2rm9h34gp3sA3Pe6O4/93os/njN/46nnI+/fMO2iOXctPWDOPO8MKSKApnVgprY39Hv8hRbkgd/OzLN87n488PO2XZpfr9b4BzL+zNqSJePXGj/dTDNxIyK/Y6LN+XnGwOm4RzvK6RJ+HloIz46v8XPLDrl54QmPPrd+9ryNPedS3r9x8jn3fOeefW590JJj2f2Ke2CgPwvr2Ofl6wqcFzurOjn8L/fxdXH0OJ2vrpl0RFagF6gnAn+hHJHxc35k+VCPIxnRvprxF+S7PPCbdyt+XzN7lVKIgAJYCBFn4KGF6N0G4Bduf2TSw8/0xf5JM/ry/hNOe/HyG/d7bNXhXzwGVVWOWGE7IoCmdQpnbwuDZvyFlkLgL+TkDML94MM88HP+WG2t8Q9k/ObdSmv8mZjgjhzeyzOGcGkdL4GHFmT8Hb9q4W+D73vsjAeWr589b9MpZ28e1/Pmhd/86rIXDp1wJrIlwW/HJ6IHmtYppYldz7S9POPnmkREr2asEFljzcsDv7tMXuPnT62gHkc7Ylszfs34CxCIdcfMlCMuvJk8SgQCPLQQsQsBHP7lr+z90IpzFz6+/qJvbzr5rA1nXXThvY8d+PUrkC0BLpeG36hMyaZ1MtnaSNSMv9BqPPAXMoNB7F94Iw/8YI7Y0IxfM/4CBNxvrx6c7c0YIt6+3XHjoYVGiYwhiVbu+sfiHD52/OeXrvzG3cvWz7p64+Rzv3vjwn2/c5dfxu83KhNn0zqx1ttYOe3dv4issbDlgd9dpti/8Eaol+lp7vLzODXjL8h3tcYf8ZppihIXXpNBKRwBHlqI3rUAHvbVU/Z66geX3bHkza9f+ey3bh788NPIljhihW2/UZliTetksnUSsb3uxyNrFIvwwO8uMA/A6OoJlTTjL8h3eeA3b0/ivlbR7cyct2Mo7c0YktiahxbygW72wMNOmvq5Z1+b992H3vz6t0Y9vhrZUqnd4Tcq0/qmdUppkimz4RLau38RWWMhzAO/u8y8/Qv14BV0Q3WXbOfUjF8z/gIExFUx7se8C2/cWTpGGg8ttKguB/CQidMHvfjGjbcsOvv+Jx1zd/4tau9v/2d6lGmdTLZOIrbX/XhkjWIRHvjdBeYBaKrn6N6OU2vGrxl/AQL2m2Ngb3szBtzEAxEoJYeHFpo3L2OoU6u0cw2d2vcP+F5/ywOOuTv/FjV/jzp8FaZ1wmU2XEJ79y8iKyEcnk/zwO9utbz9C/VwPoRryLXSjL8g3+WP+s3LVN59zeRUSiYCCmAmLHlEHlqIRwE8fOSYg6ZfNOjFN1xSIn46m38dPQ92R7ppHceB7WVrr/vxyBrlwY9wLUebWgDk/iy0dRRuYdsd+OkuQHwjjhqIhUo3Az/Hh+5ripu3n+zKGNTf+hDgfpWHJw8txE8HRx5/99APvOCy3gnThx/7NdqMu7L/DL8SpzM/T13wt+PJrdN/JoylhqN97fL7ZWasq2r5u77HnzFve/cvTE925/k0/VN7Zf2Bu5a7HS37F0+wzBuqu/x+n5F+qBn/gDdji/KGGfh5r+W+xtm0nYeAApiHTCbdDC0KIIDqnTD94NMvoI88WwID/7dTwUYBgPN4t03reItq2sCO/x6/cBjxIoiLOXjgd+EnHsf9i2uKu2Q7p9b4CyrcPPDTPYv/zqvQcB5tWxBob40QtTfL6qLz8NBC86oHAv/eCdP3v+w6whzZEnqJjtOZ6Pw8FZwetjOtEy6zIRI6/i/38Yx/xFFjh6x+xAV5/r4IXKuU5zjuXziqi1YuPJrxa8ZfgID95hjY63jhDZylY4bz0EKL6mYARVrGkzbe5tbnp7P5BJVzerRN63gIaeaQbs7483yJHiDBXsK1QLc3HPcvAr9dmntvRo2fD6a7A6dQu3voPOM3ceA1ft7bPfgE+oPwe8WtLJ4EYHfiZgZ+4CAOa9DF6Zx3noKfb2pkcoLYDXQR+IFPe/evMD05DNbFXQtPj0y7czbuWpAjhph0x/0rtDXl0ETudM34C/Jde+AXfi/MrB8LEVAACyGyM3QzgPzYFS9mi8APDPnpHD3jxyzd02iv+4lQKhyGu5bo4sblbMK1OJul7Qig0NYi0LFLa/xa4y9AgG6RFf3WGj/yRT+EHWuEgbP46Vb1KDp2MQsyM8u383E60yh+nkJOR2JV0eoasn+FJ7hYEKaHJ2AUnERcDU0M+bx8lMmZR3Hcv0LbPGnudM34NeMvQMDxCunH5njh9RPeDaO6GUCeb9kzfiRt/HQWx3o3eEv0NTbE/YQnuCwToZSY4SHiqx+CTUjm8wrXEpx5Hx0BtKuRJ9xC18BfEPb0Ub/Fe8K7HP0+fKJOldC1AIpzVpyM/BzndwL7qE51kurW1RD34wHYcbEWh+FOIti4cM4mrguczd52BNCihl1+Xq8Gfg38BQjkuU4UuqPfR5mrI4V0LYDi2OXR3TwlcQ8Qo0zOjnSS6hbVEPfzC/xDVj8Cx0BDhHCLhwhfEi/5O2LuCKBFDceJBNvuwE+1AerTNsfBzPg5Pvytfk7XNsfQ0kaN0MKD2pvymH5FB4dJ73iscOxmrh31fvE8H6MIH36eZspR3yOg8nBoyP7lgd/Rjr0TplPgJ34K/NTmTsI9BD5DDc5G+EANRx0OHznGcf8KNdzlk6omv2b8BfmuGfixE2A2TtF2KQQcL7ylZHYVc9cCKI5dYXSewPGHASItE+epEKIfgYD4Oh/oDXE/RFxha+hpNhD4qYs7DHct00PAydlICFfDnDGT4gigqUamNHeiBn4N/AUIuDuTB6ej33tI7pIhXQugeexyi+N0JiL/yE/n6Ocp16GT2p0X+Ln/CDewdPGLBWfztrXj/hUaek+HgRr4C8KeZvzwlSoajn5fxdSdIbNrAbQfuzzS88NaM34/t29y4Oee4B4gLaMsXdyXOJsfqu7PjN3X5aiJ1vh3f4ud8DJrIWbg5zxa48/DzZHekBoht2m72hT426Wzo2/k1ZVRT6WT12Xt/B6Ql/G7yOlaHvytfmG7JuxfHoBFgKS/6CB0Nv0Ho8i+FoGWwO/nG477FxpmroWI9v0ieDTj14y/AAF4TBWNrk1YY4HZtQDy07kQTJfAXyikmxlamvGLeCncgFyIYjlxkom5awkJlsDv5x6O+9dUw286jNLAXxD2zIwf2Lk/qOFDtM0RcPR7PkTbHIGuBZCfzhyQzDY/8TlD9POUC++GdhPcT3gCt7WwL++yjOL1ICFBA39BvOwYp9fAX6kpm3BwVLrAqoV3LYDi4LbjzE98zmke67xX24UINMH9hCdwWwv78i7LKA383RLdLf6tgd8CTnhXEw6O8FUklNC1AIqD288EIjD4CenmUU1wP+EJPLoL+/IuyygN/Br4x2jgr/Rca8LBUekCqxbetQCKg9sPZxEY/IR086gmuJ/FE4R9wwM/F2iZ190lHAHk87oLt3Bqjb/gcqOB3+I94V2Ofh8+UadK6FoAoxy74jzlL/x3qsPEXVdC90MUt3iCsC+GUE5PAwkQ3sUzfl7UF68BWuZ1B9kRQLEQd/l5nBr4NfAXIJDnOlHojn4fZa6OFNK1AEY5dsV5qoG/7B6p0/2EdRCqLZ4g7IshhYGf48BHcYGWeflwe9sRQD6vXaBjrwb+grCnGb+jJ/mxOfq9n/DOG7Vzew/9YGldC2CUY1ecpyK0AGTHhmkdx4HNZ2vC1/mEdRCPLZ4g7Ish3oE/uqUc969YSLgaA4F/+JGjM8V1OR2BPxOHUWNPzKQfPnKM0smd7DiYfm/nN120q/jN0AIAuwoH8+CGY5TCQZynPLSUkkP73bROx5wDZuAnfOB+fviXwoesA7sgiscN/JCPFVGjIjoAtMsXjloKt0z9BwK/WKd+JAQQ+DMBgdkye5VYiIACWAgRZzBDS9cCaDnuOWL2tjhPeeC3D8zsNa2TydZGohn4aRV1up+wTtnAb9qaXIgWAmk1W8cRQKF8uJIa+PVRfwEC4U5mkeDo9xYJXdVlhpauBbDqwO8RCUzrdIxzJg/8wtw8EIougTnsyIdYnhiJ4VV/dNy/QvlwrTTwF4Q9zfjDncwiwdHvLRK6qssMLV0LoP24d/QKfp5ygZzuKOrwkWNM67iPbTinBv6KDOS4f/0c0qLzQOC31xhMEV3Cj8CfuV6t8cMxMvEprEWZfu8nB2qg0ZFyzNACADtyvRb/4XEaRrfwZ+LDz1MukNO5cLt80zp2fiGZPmbq2Vg5cD+spSL9YR2Szw2ELujAG2Uz/or0h0pCPgAUdMHP10tddn4MR0PwDxo19kT9sSCAwJ/Jc/yJp2XSleiIgALoCBSxIbRgVNcCiOMeUHg0cJ6OGnsiF8jp7mJN67iPbSmnxf16J0yPuChuHT+xwqbhAv3UEKMsAHJOoTzv8msPZPy4GmiDI4DAz4lo474GijZKIaAAloILoQWjuhZAHNyAwqOB81QUfTndXaxpHfexLeW0uB9S7ShLi2VuKONnYgyP1bAAyKeIrq0Gfq3xFyDA/S9629Hvo8/bUoFmaOlaAKNEAvF32fDeuN85a1qnpW7mrrbF/TTwu8BoAZAP93NILkG0+wI/Pf3X35kIIOPP7EWNP7NXsS1E4Oix4wt5FFsggNACStd6IA/8QMPDlyg+kQR8UxznbCnJpnU89Ck1Y3L5lv3bO2F6xLXA3CEyua1h4rQYOu5foW04tprxF+S7CPzixkQfHe9rmWOVePjIMQpgKTdAaMGorgUQkQBQ+DUyE1N+zrqLNa3jPralnBb3ywTWe5mxzA0F/EyM4bEaFgD5FELbcGw18GvgL0CA+1/0tqPfR5+3pQLN0NK1AMaKBJlnqDhnHb3FtI7jwOazeXydLxNY75XGMjcU8DMxhsdqOO5foW04thr4C8KeZvyxXDxTjqPfZ47tQqIZWroWwFiRIPMMFeeso6eZ1sFLA44SGsvmGPj5ejOB9V5gLHNDAT8TY3ishuP+FdqGY6s1/r5/ocBSN0Lgz+RxrNBkjrXP2yW9lhphlyBQyjcQWjCqaz2QRwKg4eEzdIYKCThnBd0u37TOkNWPlJJgl5+wlwK/uRaxf/l6w+vQ9FULWjXMbergR4GJE6I6/MjRjvtXaBuOrWb8mvEXIBDrbpspx/HCmzm2C4kILVh71wKISAAo/BqZAPJzlsS65Fg7t/cMWf3Izu090IRnwCC2sZEq4weAscwN8E0To6vORqb7mQoIbV280RTCKRr4C8IeMn6OGtqOZgO/NgQCCqAApOzHrgUwViTIBNA8Z4lSaB0EKuLkH8MP68LZq2NwCfzcIgJAb8UAIBfuLY0PjKUhl+nRznQ/U47QNtyXNPBr4C9AwPTCiBRHv484Y4eJ6loAY0WCPAD52SqOXYsLIVBF+YtAloka0sXR4xZxR8y+EODJhduHOPbG0tBxujw2DmAeD/21CVJYtC1D7F1a49cafwECldbARI2w0rn8aoENH+VYI2z4KjzsziNByOpcPJAHCftcFKiIh2voLsEuv2m9HL0q1gs8ITwWAg2xiPv+RV0/iuaa8Rfku/qo335zDOx1vPAGztLBw7sWQESCQOO6AMiPWst0QiX+0VGCRXgzuzh6VaxXM37YHY+govjSQOCnmxRNo23ggMCfiQnua+CHnTL5kdkoP+FDB4di5e0POHm7DUMeZkLWTjmrHX9+1FrmgkomD5dgn8sc22R+vn+x/MzH0X7rysv4wzHhFvHTLVwHeqvfUU5mxu841ow7A4GfROhvgQACv6DTRxy7mb1KLERAASyEyM7QbQBGTwFdAORBwjQHUjEe+QSbXYJgbtFHjh5fvrleoGSuztIV3dyY3dQQXXU2OID2eYFSFM21xl9Q4Ubgp1uh+I2MX9Bxw1K6HQFeI7Rzam8mAt3mgfimOA8zmcg47kEXD+RHrZgXXcOPHI0uUx+wOWplSmgmhaOH5YuMnzSnuJW5CuSyhCHnycv4OY9fuyEWcd+/QCmK5prxa42/AAH7PTSw1/3CGzhRpw7vKgB5aOHtEOO6AMiPWjGvpYtrxdk4vS3twK/z2ZePXBZ/sYdg4VDzdhTQ7CpFmcJFiIv7kRygFEXzgcBP9yaaQ9vAQWT8oFMD9zVBx71e6XZfIr+38yiGFnxwcFh4CMAO8El++lN2GO4bZWv8QgecwmbGz3UDW0ttwf9yH18X378cGUr64ZNi+XiAbz4bQJcdT66DX5urBD3r3yPu+zcz4/db+/AjRw8EfhKhvwUCCPyCTh9htsxeJRYioAAWQmRn6CoARWixI+PY6wIgDxJCB0sXV4CzcXpb2mUzforoWB1fvgVAS8YPUbEaXKVYMj3kuLgfibVk/OhyV0Br/FrjL0AAt2C6F4f8Hvblrx404+L9rrxp8MLHB734RqN+Bt+zbP8rrj/ozK9HXG8IVo5j8czJkb8Vq0NlV2jLY0as9fIqdZ5MHiSEDugyM1QuDWxiRZynyW2e8XM9OXomMuDE8k2U0CX+5JHJCWlRMOTzxpVcSprH/jU1p8Bfal7N+Asq3Jrxu98i7ZxDJ03f+5Hvz7lr6S033f/kVbeunz2vUT9PXnXrLTfdP+eupV+4Z+lh/+tE+1qa0+ueMTRH50JN8LxXcPLQIrq8P7oAyI9auw55mnMJ3qomHJgk4xcPAOIuvyEWcXE/sXBTc834bf/Ont89EYE/8z7lcV/LlOOnW4tGHXDRVeMffe7xq299a/rFG3vO3XTytM3H9Wwe1/Oz8VM3j+uhdtrfm06etvHU8988//LHr771sKfXHDjrW62wVEd6YIsyfrEH8zTnh3Upv8K3GEqN4lqFS+DSRDs84x9+5GhUr8015uFpcpaleFtEIFB2XsHvsX+F5vgoJNv11IxfM/4CBMR90+PjIRPOPPv+J9fPnrfxtAv6wjz72R34GYX3JmlvOGv2+tnzDvr+2kMmnOmx2JqHeGQMNWvoMV1e3mzPtj0mOnzkGBcAcbaKx9HuM3IJ7qOipLx5YJZSI4+Zoyesw9NQvnzBJt4GyJsoOp2rFF24u0AOoPuoPGzdJWiNv6DCrRm//eZY2HvYmPH7LX/l6Stv2Tx+qpnTNyfj57ptnDjjgWvv/NwzPxw29sRS9+hCNKJL88gYousQfdV5eR6PGbFWwXNWi0xLVmoZBWR4mHHhB49fvs5H8Tb0gfxACkdPWIcjhuVnVu45Z6A+7uuCSrXNmKmb3/7liGEhmfLzVqcZf0G+i8CfeZnyu69liupU4j63PnDR3cs2GLk+ZfMNzPhJsQ2nz5xx/xP73PpAw+3SkR7Ik1Se3PDQEssujgByNTymxulcdiyHwn0sH8Xb7hIcOTl6wjoCMf6xUpUcNfe2iKN8RzYOoOMQ8YzEbyGa8WvGX4BA3p3Rkf65Fa8+c/kNPJ/m7WZm/KThM5ffsNeKV0vdox0xiSjTL2OoX89SM1JgIJQoYFCbh5ZYGPKc1SKT51il1oJV0AFddizP19114KN4u+zshfwcPWEdi7bcvhbMC2cPGcvjZYicwLF++5dji4WU0kQzfs34CxBwv4eanIeeNHXk8pffPO+yvGp9YzP+zeN63jzvspHLXz70pKnmuppD8csYmqN/piY8IxSZIkWXzFF+REcAuRoeE+F0dhmL5fNQ6ichylsCFp05elxbkZUKCVigoNf5sRSe1SnGAXSfhXuj30IGDT9yNG4K2qY7JscBj/qJKLCi+xrn1zbH8MALLjvjgeVvnTV7IMs/jr3Dfxx7q39Peh5/nfS3zpp9xgPLDzx/bnNsunN7D/3AD48eOx7t5ujJfcClTVkp9MdHih+cjsBPxPC1E4CFcniOBX2EDtw6ggens6BnzoscnYdSSCiLJ8DMnMtFnz/z4Hv8gh8Zvyje2+eCSi5rqYinFJ4V6TD8yNF++5e8kWyBhdgxJ2bwaMZfkO8i8Gdex/zua5miOpK4/9zr5ty1dMPpM9uY8W84feacu5buP/e65pgGoQUqdYYHihSQf+TJDQ+EQCCw4QggVyNvRtM64MTpDIqlgeXz9fpJKJXxW9bo8T1+lwVaeKruKoVndco4up9QgFvKbyFa4y+ocCPw465Etz/67Veh4RI6uz0Q+Hd9a38gX+//7n6Ta/wU+Pebe21zbITQAm/sDA9EjkvroshHbTrjQOcZfxS7IGe1S+MZfx6naR1w8tMZtkMvp/Bgz9vuEij5hkyBLccTPKSJZY3I+IXOHD2urZAsRnH72jmr6y2Fp9A/olbh+xcLKaWVZvya8RcgIC6bpT4OBP6cb+o3ucavGX8pW4cwI8clIfwjT254aAmZjo91TLm4Gnw4byPwcyK1cTqbXYIi1ggo3CWILB8SoImYER8ta9SMHyjFbTi6n2XSUo4BOVrj353xi9oVbk884zd5tMZvYkK3Y6IPBH5k/HvW8inw9/7T1g83bMHzgG3vvLvtnXf7qgPEnDMW/JuP6+n9p629H2x15+dj89rI+O1r5Outuo3QAv/0qxFWrWdZ+Sj60rrwsQtr/Dzw89ydn+/kkPAB0z8BICSAB+Vh00Y84wc/NZDxCzoy/lI1fhJi0d/UTcwbPrYUntXpE75/sZBSmGjGX5DvIvDjrsQb4fc1Lq3z2gOBPz/jf3v+gk8/2tYXtvt5ej/YFcX7P4JuaXgMsUijLs34a3NIkZXyjzwN5UExlm6OW5irkTc1rmUmA05ns0tQxBoBhbsE94wfwkkHlzUKbTl6QnPB2bSPpfCsTnkOoN8sfgvRGr/W+AsQoNuu3++BwI+svb+6T3n2z8ZP/eXCxX/6ZMenH217+5oFm8f1DHycv2AgF99zlEkfyPiLOM2xeRRk/H5rr2IUQgtu9+E1wir0LCtT1KEpINEaKRpRm4cWIFB2LsGPnFXQhXyeDedxmtYBJz+dhWTwZK4RyJgSODJCJkYJxCBEJOj0ZIV6hT5Csujl6Im5BKddTv29gCKtnuH7FwsphaFm/JrxFyDgdw+lUQOBPyd9/9n4qe+vXvOnT3Z89oeP31+9ZvO4ng83bvn0o22ffrTtlwsX08ed/f/1XQ7m910O3l+95j//+Md//qu//vSjbf/5xz++v3oNMn56fgDO3g+20mhiw8Vi2zvvUteHG7fkpf6a8YeYvtRYkXryjzwN5aGllHwLs2PKxdXIk4bAbzLgdDa7xFfexRoBhSnBohJGCWlciKUrU8lMIkdPCMzkbw6RQ5FQKw6gnxp+C9ld40fRRRsCATzqF3T6iC8BZ/Yqcb+51+7+Oh+q9Xs2fjZ+6ocb+iL9v/3Dr/rq+sf1bHvn3X/7h199+tG23VX/fn56EtD7T32F/PdX9QX+Tz/a9v6qNX35OtX4d3X1pf67Gpy4+bieDzds6Yv9q9aQnM/+8LGQT3L4b2T8zbEjQgtU6gwPFDVpCiH077bRuUbrRWjB8sMbjgCiNG6Z0bQOmHE6g8IbXHjeGk0JfBSXxiXwtsDT0sWl2dscPSHQPjB5r4lnEpU4gH4K+C1EM/6CfBeBP/M6Fn5fyxTbMUSXjJ+S7/dXr/nkd7//5cLFn/zu95TB736/jz0qQFpPGT9noK5t77yLXJ8eJNBThM3jeuhJwLZ33t19gWCvFGjGn9zfkKFSfZpCiHj+LLpi6RxxCyPwm7rhdDa77Bk/+E0JeRk/AjCN5dhyIYKNdwmVoIPZ4OgJgSZzoyhival04wD66SAWws1tEag1/oIKNwJ/ZgUFtbTM3rTVoybMPhD482v8vR9s3fbOu2/PX/DJ737/r3/z9ie/+/3b8xfQbWDzcbsDdv/D/p0U1ynj70vZ+yv6vf/EHumv6isZEA8GUgOBf+BbA/0SzEo/Mv4mIEk6ILTA38JrhE1YHd9HiB8iQxWBHwgE6s+r1IEyTetAN3460yx0QFObQjjohADGgoeEgM5HEU+mBI4t1LDX+MGGubh83ubowXCFo7iEVG33NVaqYfj+xUJIT+5XFs014w/K+B2vV5abV2d3DQR+lrjzDPu/X3db31P9XYX2be+8+9kfPqaQTJX+//HU83jhnxfvKePn5fneD7bSnQBJv8j4MSll/PxpAbpEQ2v89TgnDxgiuuNQI00EZxT1wlMuqIHADwoaloVYujDcfPhhScoFSvyM4nMJNi6Qs5EOcb/Hz9eVqm2uMYkm4e4nFsLNbVmR1vj7/qkCyw/P+E02Xps0e5VSWOP/x5fW/umTHVSqf39V31t+aH/2h4//8eXXPv1oW1+Q3lWk7/2nXdH9mgUDGX//GwAo7b99Td+XA2kI+Om1gH/9m7c3H7f7WwPEwCv6ZhsZf3PsiNAClcJrhBCVqoEIZCqAQ426LJzmWEdKRABN60AHy0IsXRguHn4Qndf4+UEkUOJdfC7BRlNAMnFCgZWr1qLNGxw9UyDnbFqbQ5FQNw6gnxpiIdzcFoGa8WvGX4CA5dpY2FWY8f/PTT/70yc76AX+t+cv+Ld/+BW9t095+Ycbt3y4cQs9pe/9YCuImRk//hIAD7ZoMwAAIABJREFU7+Vv9f/zX/01f6tf5PfmR834C+0bwoDUBAHDlIZDjbosnOZYR0p4yoWJEPhBQcO+EFGtBzIYbs/4BSzmR8jhagg2zfiBUp2NcPfjNqUHZi7671HjpwuCWaHpZrqZ8XN8+PWK06ndzbgRAgOBP7PGz/91Pl5rpzyeU6hdL11k/E2wL0ILqne8Rtgif+NRB21TfxxqqF8Sc8T9hZQr3L6mdaAnFkIUvmREXNiUThWhj5DARwlpkGPH0xxFjxDEJYOE4C/3ca3oH5cDhQuEDuglOc2hm3hCNxM3WkUV9PD9i4WQ/ghJHHlTf834C/JdBP7Ma1Tm3TyTszuJA4E/p8avf6s/0DHCM4ZABfyGI0jQ8Lx9hEMNbDTQb9LMUfUAWGohmWgICfyjADNzmUS0j8KDB85GA7XGb0E1pCvc/YSxMp3H1FBr/LYC//AjRyPw48bKG7hecaK2gUBhjb8v8PfX6ZvWEBk/FtWoBhLWRmlVqAxilZ0ThxqxOY6yyxS99QBYaiF5pwov6nOB7rDYR0E+ZxNwiY8cPXc1hJAkH93XWKl6HEC/icRC8pxHCNeMXzP+AgTM26I7RTN+d6z8OMMzBr95A0chSATKCR9eD4A4nUlh+/LzkjZk5OJpvF2agIgLsUxECoux5keOXik1TFE1U4RFap4d03EAQSzVEAvJs6mQmfGv8/GrAa8NdCfdL+NX3MhbBgK/SOv7a/Yy4++ny+w/Bd2S8TfHvpQxNEcfsnuhPggSjvz88BG1WN5VOC9nJjmZKZeHHCGZPkIOTmeii+VjLPGbSRvRkZGLl/xNaZgXkqEPF4KJBD+0FXRIA52jZ6ph8oMCfQSlNjrWyBXAujgxrr8JyeH7ly+EXu4TU2Tqrxl/Qb6LwC9uTPTR8XqVObYbiAedd+lpD67YMO0i8515ojS6xj/totMeXHHQeZc22VLhGUOS1SFIJJmdT1oPgDidaWq/5fNknQssJY0LyTu+uHCOldnm6JVSwxRVM8V9jZUqxgH0m0gsJM+mQrjW+LXGX4CAeX90pxxywpQRK15989y5MoPvfwAgM/5+eh5/nfQ3z507YsWrh5wwxX299XPylKv+2b1nRJDwlhBrYD0A4nQmtf2Wz5N1LrCUNC4kD0MuXDxdEEM4eqXUEHLq/yjWWL8CNCMH0E8HsRA8xbFL04xfM/4CBMRVsezHvZa/svzyG9qY8S+//Ia9lr9Sdr0184dnDDUrTNMhSCSZnU9aD4A4nUOWz5N1LrAUmFwIx0G0ORufS7Dx/LKUGkJO/R8ti6pTmXD3EwvhFrEsRGv8e+S7Zo0Hj/ozL1B51ytTDg3vQvo+333woruXbZj2jT2S9f6avcz4++l7MONvAJjPAyrjf2v67IvuXrbPdx/KtHtz7EgZQ3P0cfRzBAlHfmGFiOvNTLkiyifNcTrTR7F8rM4+L0/WuUBTmkUOF2KZl9hIzp/bK1et5QMhnx+AphoW+dQFOeCsjc4BxOz16xO+f/lCtMYfLYtF4M+8PTlerzLHdgnxsOMm7vf0mqevvGXzSWeYeX8za/wbTz3/6Stv+dxz6w47bmLDzRSeMSRZIIJEktn5pLUByHNo97+wxlXlEnDckyjCkzPntbmQPB78dSBiQOAX/MKI4qNgbtpHDmBC3cLdTyxEhKQ8c2uNf4+MH1c/NBD4QeENfuHldG1zBA6aftHZ9z+5fva8TadMF6m8zPjNnL52yoZTz18/e97hK149aPpFfBXNbGcmrM1UlWuFIMGJSdq1AcgzZvrH8cqul0vAcS/+nb1CmVyIhZmz/bnNM34ces0xomUheV0cwDyeGujh7scXIizCu8RaBmr89NK/effpcjoP/CY4tAeILu5WXY4bsCIcDjx/7leWvbBk3u0bzpq9ccp5m06e1ncDGNeTkfHTg33zL/1VTN804ayNp17w1jmX3nX9vQc8+9pB58yhJTTcjsgYGq6n8AecUIKOj2hUvS76h2UxHRrR5xXng8jMXOblEviZboJJj6whkze4EE63rBeBn/hJc37hcJTD2dC2zAse3ojFDwC5cAtuseYVcsL3L1+I8ATeJebVjD9axs/vyOJ6pR+HHzn60OMmDb576Zy7lt52430rrlywfva8Uj9vnn+5eFqQ+3H81FKSiXnFlQtuu/G+OXctHXLDPYeNPqEtJgvPGJKsFCdUktn5pLUBKM4H5M1cGfc2znQegN2Hl+JE4KdR0Lw5Riy1HGLmAHoMjzUk3P34QoRFeJdQeCDjFxcf/UgIIOM3AQHK4g9pmZxKIQSGf+kvDzr3kn2vuW3wA08NevGNUj+33HT/htNnmm8JZFLWz55XSvigF98YfP8T+111y8FnzWqXsZAxtEttvnfSal4bgCLVzsv4HdHAmV62xu8on7PlzdUcI3JtHdt8UY5DqmALdz++EGER3iWU14zfP+MHyvavuoqrln7kCDheeId+7fQDnn3tlbnf2XTyWbmJPnsbYP3MK49+YvXQCWfyuTqy7Qhg09bO905a3WoDsNUZP4UQ8+lCbehFdxIExeiSSwkMB5AvRGwr3iW0Gsj4RQ0AF4QupyPjN3EAypkZv8lPkCqd42BeePPw2W/utVMeerrvgb8o/2fV/t8659Jpi5468PyMP7qXJ7+ldADYLv353uH+gGMHjarXVVuNHyuiRl7G77hefqabYMatVWMu/nSB9IT7YXWO+ifn54uCMnFx42LRFvgAQEHP4zfpfCHCE3iXkK8Zv2b8BQiIq2Lcj6UuvHsvevLmm3c98GfJfeYDgA2nz7z21gf3u/KmuNo2UFopAJujP06o5CqlAhCVcj8EcKabWbifQMsoy1yp0LNo69jFF+U4pAq2cAD5QsS24l1C+UGjxp6oPxYEkPGbPEB51NgTAbHJphQLAsefeJqlV3Qdddr5Bz772suXXf9fJ8742fiplp+f9pz3vW/ftt9djwoJnfexFIDNWT7fO2m1aimA/MCpGkzLXC1FrzkndjiAFuvwLrHLuivjF2U2cQnK/IjAb/Ziv2mN3wTHkVL2wrvf3Gt7Ht71wN+a9G868fSfXHzN55c+76hGe9nKAphwpXy/8HZClYYfObpFAHKgcKZrxs9hcW9zAN1HRecMdz++ELGteJfQXNb4qRLA6wGc0nY6f7HWcV088KMCRGOBsqXGz2eh8gynULub6VRhLYXD4EVP3nTzooE3/KnGz3/vegmAXuw/bPTxsFoH4Lxzew/9wItEjRB0UQtsAp3vFwpXpexekR25BwbqI6xTqb/xMx3ABuoPhIUc/nU+MRdHr9L1RvdnAIhVJ9E/fP/yhQjr8C6yKX5rxl9Q4eaBX1yaOMqAWPDoRzsCHhfeoV87fej31/7gsus3TbC94b9+5pVffuKloRPPsivQrl4eWkhzDwBTLZnvFwT+VMpg3ogAmtbBLNEb/MARwEaf688CV65aC7H87YSI6EF+PQ0OYD0zZs4SDiBfiPAE3iV23EDGjytVGxt5r8iKtfCMX3TlfUTgNxmAcmbGb/IrxUQAF16zy0LZf+51kx5+JuMNf/bC/1vnXHrmA08deMFlFjmt60JogeZ+AGJ4nQ2+X/z+WH0V2kYE0LROFQqTTJzp/E376qZbuWothPPDNiJ6kF9PgwNYz4yZs4QDyBcithjvEjuuQzJ+fgnNvFgRUWv8FnCSdHlfePde9OQNt+x64J9T7N9w+sxrbn1o36tvSbKuiiZFaIF8bwAhobYGTiWa0XHPVq1eRABN61SnPM70Gmr8f16FZvwVmTKK++XFtTwn6Z0wvS/jx3P/vDbJzettAp0OkUxN6H5Ka6SMv3C9XA4yfnMUDjKR8ZucSslDgNcI83gy6YdMOPPQZ364+vIb+h740z/Ou+fvjZNmLJ132xfuWMyt2fY2Dy20llFjT8zEp4Er5fsFDx6T6+ntgabmpnVMnliUvDM9lnwhhzJ+09MioidmNOeKSwGANc8rVlHp/uVr5LuvL/DTRQZU8yMG48qTd78AQ/0NS/bAu7jmvI1jyNScB37Ry0EzURLM+jETgZAL735zr51MD/yzkv5NJ53xxsXzP/+9FzLnbSmRhxZaQgiANYPA94tlx9WsVUQATetUtxZ+4Ahgq5hUnJaYIiJ6kFlPgwNYz4yZs1QKIF8jd5LdGX9mlQiFHAxGicKjUo6xFTWgLSXfmAWrFUm5YBP1Dww/fOQYBH5OpLZFuMmslEwEgkpcR40dvOjJ6295YOANf1bj3zxuCr3YP2zs+Myp20hEaIHyQQCOHAM5NTT4frHsuBo04VNEBNC0Dp8obpsfywLYuBORtLwzPyJ6VahtkckBtLBV3VUpgHyN3ElyM35+H8dgurCYHzMvMjUT89J6rNb8qr24w3IJXHkEfk6ktkW4yayUTAQCL7x9L+0/vWYVPfA38v71M68c+dTLQyednTl1G4kILVA+EEDIqaHB9ws/YWqY2jJFRABN61jmDezi57AANlBy5nBxWoInInqQWU+DA1jPjJmzVA0gNxxiXF/gpw7uOlTzICZqEw/aBJkIpQkrJVBepPV0uFCv0JZb3VwvXwsP/JwuHpNAoOARFR3tFQiE1wj3+Bv+/Nv8x/W8dc6lpz244sCvX9ExVuChhZCstEYYFze+TxH4hT/EndFFWrgHYhbTOtWtDgeOOOUqmjHv7aiI6FWkOawj5ANAQc/jr4he9f7lsRsxfSDjxz7ErQS3AwqZoPOPwI731t/GgSKiu9gSds3z1ssDv1iaZV7BqR/zEAi/8A77L8fuvejJ7yzY9cB/z6R/w+kz5333oX2/fWve7K2j89BCyocDWBsIfL+YB05taoiJIgJoWkfMFfEjP3sFsBFngSieOILY3r97aEYKvqg62xHdL1NtbjjEuIEavyi50bak8gZhhDZqHgI7ouN+kcnPxwa2+bv68HuR8YukHDc7Oxt2FPHzwC90tszL59K2wI0+0g2aSlzU5vRS7aE9M0asePXFy2/cdMr0gX+777iejT3nLpl3+xfuejRQvkX/UnqGy0FowbyoETZ/jXy/0N5sgs6UswLPEBvBOjWsC8eUSG9C9LeM5Rk/xyrK/rXMy+eK2waAac/nOvcv3oSzZfz8+sBvDYJO8BERUHKeitq4vAi/52k9Tc05uTJiUWATq+CBnw8X84pRglM/5iEQ68K739xrpz64ou9P+rCkf9PJ0340Z/5ej6/Km711dB5aSPlYANYABQI/zYUdV8PUlikiAmhaxzJvYBc/cASwgZIzh/Pv8XOGiOhxsTW0OYA1TJc3RZ0AYsftzvjpfspzaKK4/OY3QUCJO5SLBD8eri38nubFU4dSkgkU8TBg+JGjeeAX6+Lz1rn2UusSOjdtbKwa4bAvf2XwoievW/DghjNm9sV++k7/8afu/ov9u17sb9raPfThoYUsW3WNMKL/8P3isfaImvDZY3ng8CNHm9apSGfxtBXA8nXFbev3+OPiCWl17l8e4wb+ch+uA3l3k0w6z5sR/DI54xK5ttzvzYzfcV4IFKvggV+I4vOKUYJTP+YhEPHCe/CUc0cuf/mFK3Y98O/P+9fPvHL4ilcPnjwjT4F20XloIc0jAlg1FHy/VD2Xu/yIAJrWcVfDg5OfvTi+POS4DNGM3wUlD56I7lc4O5xkjxo/3UFC6igIfiQEmXeIzLyxeRk/pewha+GrMDN+rg8OMvGcgPNo226LuDXC/S6//owHlu/+G/678v63zrl00sPPHDDzm2QIZGAttQtCC/Svs0YYiCHfL9A/UGa4nJbW+OnMgT/z8zAcE3PP8oyfy4+7f815+Vxx2+KcJ+HAM+5clnXVuX/JSchzBjL+wvtCIQOgJE5+IS0cW5YBlxdRa/fO+KGAWIVm/ECmikbcC++wvzhu19/wf2D3A//jejac+Y0rb3tk32tuq0L5JsiMC2ClK0Lgr3SWssJbBKBYGj9g+Xko2KJ81Iw/CoymkDrdD06yR42fbiUhvxEyRQaMYIz7lN8s/FYr2nSmkHw8afCbha/CzPi5TBxk5nrFfZyP0jZHIGKFlax/8NQL/stTP1h5xU30hv/GKectvuaOwfcsC/Q9rnOj2nXWCAMx5PulORhG98BAlNyR4e9XuY+Ky9lq9Oior81emcjXuX8p8MfP+BHgqUGw0h2HX07NW48jBRcWnCA0UHx0lJbHhsBPDBdsmtU7YfoFm2ZhLgzk84pRHArwa8NEoIoL737fvPGsRU/SG/6bJpy17pJr93ryJXPqzqBUAWBFyPD9UtEUHmJbBKBYXZRDVcgs+7HV6PEIVXbhsfjrBBABdPiRo53+dT6POxECYWY2nHn3sc/CTw3eplG4y3hIFvNyzcUNRsyLj5lr5Pdx3g7XsJMkVJExHDb6+MGLnrzp5vs3nDFr8wmn7f6L/cee1Em4YS11Zgxip0AHRzrfL2XHVsdfhQdWpy2X3IRTpdXo0VHv6L0c+YjtOvcvj5Ixa/ziEoQLKUKpYCj8CAlmIb9wbCwGrjxOLgjHfY2zUS9XnrcxVhvV/eWvg874+peffOm5b9608ZSz18+8cugzPzy455yOBBwe2PzVmdunCTq3CEABVxNOlVajR4e2QLXmj3UCmJHx4y6A2nlECuHrIbl3wnQ+CgcH3dEiakg3OD4XKFBeXD5o9lFjT6RRpCrdwTkFcurUuUVzUcaQiXzgKva96uYZ9z8xZPUjb5079+TFz9bjLYE6d7y3YAs3Z6VHjx2vvoG/3EqnXHOsU50+5old3VwWyYggFp5Y1qHdR2dUhRk/rk5mNowue4NfafmRYR8Vt5crb+qA+xpnEwUCrfdbLAIALTx+XYeNHb/3oicX3LRww7SLLrtjyb7zb/eT0/BR1QEYfeHm9ok+hYfAFgHosbqqh7QXPXFiVw1Unvw6AaQLLmlSVY2f7oz0GxDTXcP9NwV+ZFF0cHDJNbShPN3IhA68QsO15aPMN/w5pzsaHclZaY3w4LO+cfTjq1deceMD1945+L7v1eAt9duIe2D9s5eaEYG/1KiqrVapBzZqpSFI8u/xczntRQ9HdFob1bl/8WSr7+W+vJtIRDogdpHJbyUtyvhFWi+WzBciOF0w6WCeqi+8+3771nMXPr720uv2Wv4yh5G7Gae3rl01gBEBQeCPKDNcVIsADF+stwT9Hr83dPaBdbofP/R2B3669ZCK0dsiCtrl81sJz4zNU8MuJ9ZauPKmDnRfo7l4dOejeJt05uuKpWdL5SBjqEj/Q4/92t4PrbjtxvsGvfjGocd+DT6DtwoqmhdZUdXy6eDAumqb12NdYvs0RGecvA3Rh4Btmh2R8Qu7V71/q8MBx3Jau9e5f3ls1Yx/NHZaZgP+IR71EzNODTOPxz2AS6BR6MqcsauIHMCKFn7Q2bNHP7Zq/2dfGzpxOqbgl18Q29ioAcBYsIjAH0tsoJwWARi40pDhmvGHoGcZW6f78UOvWTV+HA3mN+PRhTsg3dSq/s3DtqmDpUKDb9lyCaQtz/ir1r/h8pExVKrnvtfcdsKjzx8w81uYBRk/KDX7Vax5LR7YtBVh+8RaexQ59Xhg02xRVh9k/ALz9qKHY1msqCwygfx17t/mZvw4GiiBJtvQdYl3WS5Q0bvgH4UZv5gaaT2XQDzoEkO68GM9F95Dvzph70eeGcJe7OeX31bD7gGgu/vFRSnVFrbb1wNAu8Cu6m0veuaxnMRwqQBsVo0fRwPdwnhmTHGX6GShetrcP6AeXITX+IU+OF65hMx14c5Y57oaMhcyhqr1OfCcOYPv/R5shIy/6nmrlk8HB9bl4kt4FlWoGwJ/Kfl5OojtE0Vm3lzudJy8DdGHjOKuf1r+2vZvoa+WxQHHclq7e+zfKL7RrBq/OBpgy4QN+Idm/FVYAcduFcKFzCHX3QkKQhooLW14AIgraeGSOUruo/LENnB3V/e3I/NA6DC6h/s1BAF+sCdUKRWA6Wv8yL3o7xPR6UC3sCb85v7BTy7SzVKhQV7FJdAo/iSjCWtMqAMyhhp0OPS4SZiFex0shV7cqZtP4R5IcbpQZ/f1xkUJ26dQwzrxr9MD61xXPXO1Fz0cy2m9ke/fOjUZyPj//N4m/zEvQbw38yXPPAZAbDLgLKDpTAahRv0MUB4Zf1kduITGLlPg/OePZZfZCgmHjT4BdqQw2fZlUsZQ0Sp4xl/RFNxtkkwhUq4kOnAQOnXriTUmXyYdy8nN/Wf3S6LDQOA3DROLYkY+PDYUgZ8O5VjzRpHDlTe1FacGnxFr5BLMlxb5kC5sWwCsDg1uR2Gd6iatSDLczH3v8CF2rXjgdx+VJ5PDnsdTPz2JB9a/zIpmbC96Ddn4qQBMEPg54s08C/gmsWtrMRs/KEWbZPJZurZtAbA6TLjXcftWN2OgZATgndt76AcCuWuBjXrR5b1eLhDSMHXZBlej7Njq+CN6oGmd6tSuWfKfs9LMGSOilym/OmJDNn4qAOuo8eOP26CGgSojPwvQW091ynGWCzbN6p0w/YJNszL5LRUarFH8rX44nPm3CpqJQKVaJakRcq+DOTLtW+na3WdErX3n9p7eCdN3bu/BWIrHpCfFaegMD/ReL+YVPozZMZcLBWqUGuUiOYQnogfywN+oNYbgQ2P1e/zhGGZKsESQTP5YflVHxo/Aj+sbzx54VgGG5jR44De1cryv8fVyITzqcHr3tB0BjAsIIlBbKi/YIzzwEybctcAmurzXywXyicwd7WIgroYLfz08ET2QB/56lK9tFs34K4I6ovuV0rCmwC904ocIP1wEWxM+auCv1ApJ/J5HIHH3Eh8rXTvfBZaJLNqKACy2EuTbJYhRXBPeBWnEID7yUXltrkYeT/30iB6ogb9+83nPWOdOtygZ0f0ss5hd6QO/qVOjKBdsmkU/mVoFmq0hzpe5tHqIgQD6KSkiEI9hdotYAqGHJnxeMZx3cW1N9QQnl4MuuwS+KD5cvC0IacQjPoqBmR+5GpkMSYgRPVADfxIL+k1qbiU/OYGjIrpfKU1Ejb/vX6zJqiJEpqP62D9XZPnGKvzl88B/+Egpp79CI+mO64LzET8dpv1jx7BVeMpnEkha4+TkVFir1ZNHoD2r16OFRfptsVsfo+ZdWk9DQrZd+j2hTz7XFurBsv2cfXIohPfrPAa7LF/CbvmQ1i+hYF6o0T+XEw5Qw9xHpeRA2yhydnmgk/6F8/LA37+ibPv298aZNwoOu1ZXWp8k+zfKeg0fJkvVba/+CFL3vJrx9/m65YcHfpMt8L4G5yPJHlmUqVK7KIEA+i0WEciEXVhEyOfJsZ+xHCVw4VxbUz1wcjbx7gLvEhJ4F2+LC4fAQQgRvXkfhfw8tprpET2QB/6aV5Fquojo1bwEPx+OrmQqADXw26L+8CNHa+CP7utcYBK/FxEIsVPES64ntR3DtjkQFEcJXCWurXlagZOziYXwLiGBd+GZAbTNawgheWyCLuYSvak+RvRADfypjOgxr58Pe0xkHxLR/ewTiV4N/Br4CxAQHhP3YxK/FxEIsVPES3OljmHbHAiKRUJeF9fWPK2gPGcTC+FdQgLv0sAPM/k1NPD74ZZklNgISXRI+E9F7A78VHMyF690e8ZPFRpv3OB8/Dv9XFrH4y8Cfz3rFdEOtXARL1HThUUQm8leoKNh15/PC9NjLISTGpxOA031IIT/Oxc0EF3mQ3u+XhHsuQ5QwMQBwu3r5RJMNXhvKTmmPhDlIUd4IInykDP8yNFm4PeTg+Wg0Vg5Ar3G6gkkYV/4MO+qX38CsP5502T8HOuGt+2BX/i9x1qQsWU6oofAdg0JB9BjvTwAiyhrtwKPizCcuwJ8XnOiPOF8lAgtXAhnE1cEs4vrzOflbc4j2nxe0WX5KNSwcNbZFdEDhXXqXEWquSKiV/MS/Hw4upKpANTAX/CgWwN/dF/nApP4vSUC2Y8DHhfjBn6uktCBd4nQwjk5mz3wc/wdM34xhM8ruiwfhYYWzjq7InqgsE6dq6h6Lv0DPhUhHNH9SmmogV8DfwECpfypLHMSv7dEIBHSRHRvWuAXjyuEerQW+zN2DfwRPVADf9ntn5Bf7PRUmkR0v1JL0Br/HmHPrLXYM/7AGj8Obq3xk9ea+FdBNwM/5uXHAW+TGois0Wv8XCUxL+8yQwsdHNAfm58L4RJMPLEocQmAKLOmDuE0L5dgyoccUw10mfpb5Jj6hMjJPHn99DGt4ycHy0EjuRyR8UMfgR7o0JwaDaTDh7mq9euZt3+rxk0z/j0CP3cCatsDv/B7c3ghBTllpiMWDm87QziAHghYIhCuYuJpOc3CIxwMZ3blqcTnFeZ27DJDSx6AXD4XburGF8XbJicoXLjlugB+atjVEMy1fcwD0EMB0zoeQpo5RAR+KBkRPcispyF8uJ5JzVlSAaiBXwN/AQKms0akJPF7ewRCRDePBh4XwUZo8K48fPi8Qjjv4pePQuF5AHL5Qnieeu50LlwDvztu7eXUwF+R7fL2b0XTQawG/oKwpxk/fKWKRhK/twdCRHQR3kSEAxvBkhn4xUTiI5cgutyhzgOQK+8tPE8NLlzAkjeE2EgTC0/9XXkA1q9JG2dsL3rCh1OBnwpADfyJAz8criGOCH3qaSTxe8dAaFqER3cetvOCnzkRlyAQtnQJTv7RAiDX0E84n4i3BTJCeN68JhpcZqq2BcBUKrVo3vaiJ3w4FeapANTA39zAL87TVK5Z6bxJ/N4xAplHA7cID2/dHPgFmAI0jpjgrNSv3IUn8UB39RrO2V70hKOmwjkVgBr4NfAXIFDplkji944RSBwNfJToan7gj2tEvnwOi/lGpAb+uMg3TVqS/RsFBO7DUQT6CUkFoAb+grBXdY0f7mI6Ij80wdZhjSR+L2JVHqTCInyU6HIP/Hlz5Umw8FNXEgD58jksGvgL7dVhDEncLwqG3IejCPQTkgpADfztCPziwbKfkzVwVBK/F7EqDxZxNPAveHfAAAAgAElEQVRRokuEbRiLD8mbBXS/e14SAPnyxRp5l4BFcGLhaRtJAEy75Iiztxc94agRMSklKhWAA4F/2BGjoLG2CYphR4xCxp+JydFjx2fShx85uiydOyKNpUhAbYolZWU2n5/8vmY9EYHs83KLUAyjgWZeO+yIUQjbw44YlRn47XOR/EIe069wcHiM9d7vHBmASbqhizChXtKNc2J/eesQa71/MeaE5DrEWkt1cujrfKb8JPs3ir3gqOaeiiLfxIrECnqS/TvsiFGDjh47Xn8sCCDwZ/KMO/HUTLoHEY5IY3FKHj12vOjyEN7YIREBdF8jx9YySsDOR4muo8eOH7L6EYjqnTCd2nwIevMaXEIej0lPAiBfvlijpctUvgmUJAA2YeGldFi5am0mf3vR446aubR6iKkAHMj4cc3RBkcAgZ8T0cZ9DRTvBhyRJOA8NfNL7ykaODAigO6r49haRrlbhAvkozjdMhF14ZlBISdnSAKgZY2WLq52c9pJAGzO8h010T/g4whUWbZU7qeBv6E1fh4z+GFa1rEazp/E7zm2FnwE7HyUYxcfYpmIuloU+OkymrciVDoOPPcSv0XlSa6CnsQDq1hIpTI18FcEbyr3Gwj8ovaAdXY5HRl/Jg7V1fgRM6hmTJEmU4e0NapAPyG/r3ldHFuL/o7R3VL+x0QuNhqy+hEPHHBweIy1rJ26/GTifZS9Fz1Jgd9PTogO7mO1xu+Cldb4K/LhVPt3IPCT+fW3QACBX9DpI8yW2VuK6B5mSoltOHNEAN1XyuOxZZS7RbhAPorTLROFdCUB0K4wBf4Dz5kz9OWVfbeZLx5j50/b20AA0wJSavb2osf3aaklx2VOBaAGfn3UX4BAXEcX0mrze/7M2TEei6OBj3Ls4kPEwmN9rA1Ad4Up8A9e+PiYdYuGrH7kkBOmuI+tn7OBANYPgveM7UVPbGFvBAIHpgJQA39B2NOMP9Cz7cMr9XsUm/2+UC6OBhHFuXAun48SQ+xQ+PVWCqCfSr0Tph909uyDX1558k9uHLL6kYOmzfSTU8+oBgJYz8KjzNJe9Pg+jQKFn5BUAPYFfqpe6O9MBBD4M3tR48/sLYtt74TpXA7qo/BR3tsZbaqwVrQWjicq6Ob3y/NmB+xkR0Rx4qfAj7Fcft68Zf3BhT+uB7rMWMjTO2H64Pu+N2bdAxNfvGzI6kf2nzMPKBWOrZ+zUg9s4HrjItxe9MTuTmWpVPtXM/6mZPzmm9J4Os191O9e2dhRcS+8QIzWy5Ny3oUQbodFwO44StiRz2ufzq83LoB+OohRB531jYNffuHkn9w46Zlv/MXaR4Z85y7B0KiPDQSwUfjYlWkvemJ325dZXW8qAAcCP90EzRV2OV1k/AIf3NcEHffHUnQeqPD0mL/Vz6V1hl1Mvw9ZF4+y/C/oAUyyS2YIN+cVR4MYZfKTdSzzcvOhbZEDHt4Q/ABQ0DGkfvrge5aNfu2BiS/OnfzE+ce+ft/g+x6DMn77gg9HO9a6+Fv9EN5APWOtN64cuB+giysfYtGIJV/s7ujyHfUEgI78sfQcCPyQqA2OAAI/J6INs4ES0hCBH6LyfBQM7W1EBFAEZg6a6BIf89DjEujqQAPz+EHPsyMYvBs7t/fQDyREBBAyQxoHnTmT0v2eZTN6lk4/4cff3evJl0IEVj02IoCmdapWvjb5+j3+iqCO6H6lNNQaf9+/UEC3rczfCPyZvcj4M3vtks1eXhvmvYhAUWbhkpO3w2uEFGXNyj1AEzGbMKRnA4V4Cov4jSqcxd0KCC2QGdcD3TXJ49yV7j848YW5PYunTVk8bcKPvvP5VeuGHdlXUIPOjWqHeyDWZVqnUSuFnh5a8e/xczkR0fPQimtSts3Ph7JjI/Kn2r+a8Teoxp93ZeM+msfTUnr4hRfptcjjOWiiiz/5L4UbLyVYBkIlC49fF0ILhocDCFHhjYNOv/CgH7x48k9u7Fl29pRdgf+UNd/e76WXDz1uUrjwiiREBNC0TkU61y9WM/6KMI/ofqU0HAj8dIuhwdoGDiLjB50auK8JOm6vUeiIYZ1nF/L7kHUhyoroDtAyM/4odiEhpq2hUsi6MseK0DLsiFE4ODL5Td3ydI5C70/3L52yeBpl/BNfuuKQl58/6IwLo8ivYo28xh8oH9YJlNNArHjGT+rRGsP3byqs+PmQSoeE+3cg8MPbtMERQODnRLRx7IJSRYP7KMlHaKliujplhgMIKBwDfw2rg0rR50JogeRwACEqsHHw1PN3p/tLd6f7UxZPm/T8nBGvPrX/nGsChVc3PCKApnWqU7tmyZrxVwR4RPcrpaHW+BtU40d+RjdQ/Ebg5xS080a1gu5YI+TfkseDekKAomzZGn+l6Ik3AyLOhdACmXjmBEoquyPdp1yffk9eMfPLax/d5/q7U2lVOK+jBxbKGXbEKNM6LqNazRMRvZpxwKFa87xin6bav5rxt7LGX11OWeraGM7seOHlxXWe2fPdy+ni3zIWXeFq2yVUZx2EFijgCCD4K2ocfOq5B/5gVV91n6X7UxZPm/zE+WPX3T944eMVzRsuNiKApnXC1Wu4hIjo1bxSfnTUPDWfLhWAmvFrxl+AQKU3YseMgWf8iOL8Lxw0KuOvDjGEFuQNqTIGscbB9yzr+1N9Kweq+7vz/qVnj/vRHXs99bLgh/7J6Y4e6KKnaR2XUa3miYhezTjwwJ/QG1PtX834NeMvQIDfT6O3HS+8Hhl/dFWbIBChBco4Agj+KhoH98zoT/en08v8/PeE16/7/Kp1VcwbRWZEAE3rRNGwyUIiolfzMnngr3lqPl0qADXjL8h38XJf5q2wnvsafJR0wMea78iZCATq4JgxeGT8VWibXCZCCzSpxwPtVt6V7i+auPISXt1H+5RXr+77Rt9XT4HOdmk19zp6oItWpnVcRrWaJyJ6NePQkFM01f7VjL8g30Xg59c0tGu7r/GyMXdZaNLShgVAkeVjgXjUn7aQD33qbCC0YFILgOCptDF00vQDfrC6r7r/aEa6P2XxtImrLj/k5ecPnnp+pWp4C48IoGkdb63aMjAiejUvuSGnaCoANeNvQcaPf/eFcibuss3Moty1smQMIsuHTAR+e40f/DVnEpXOi9CCWVJlDEB18D3Lxq7rS/fx3X3k+kSZ9Nyub/TNvho6Y2wTKBYPLKunaZ2yEhrLz7/Hz60WEb2a196QUzTV/tWMXzP+AgQqvYlbLrya8ZvII7SgywIgeKprDJ2IdP8sXtfn7clPz/rSD5c29t/oiwigaZ3qkK9Zsn6PvyLAI7pfKQ33yPiHHTGK3+bQ7mY6HvUTCMCE7qd0X6sZH9xVa54Xa484b2bGQPLNjB90SvoLM/6IemLtPC+pXz5CC/ThGUP9+uxK9+/Pq+737Pr7fZOfOH/MugcGL3wcOtevJ1ktc96/GHNCJp2I0NnF7qZ1LPN6yI+lp4eczIx/2BGjLPuXI9ZAHHCKptUz1f7VjL8g30Xgz7xPJbmvcZfN1KpFRA4gT/HxV3rEH9w1P/LFCgm8qzPaCC1YDgcQxHoaA+n+ktx0v+9p/7Kzv/r6XXstf6UercrOEhFA0zpllWksv2b8FZkmovuV0nCPjN+8+ygFgT/z7s/va7VhxQN/pla1aRI+O88YKGyTTBTyaS08+2/R6sLxKZSQxANJq8H3LDtm3UJLdR9V/6/9sO8bfYVrSWJZ7oHN1LAJWmVm/MOPHN1e9Bpyiqbav5rxtz7j5y/8l7r0NYGZX3h5vs4DP8/+m6Bzo3TgANap2NCJ0+m7+1Os6T4V+0955aq+b/T95dfq1NBxrlQAOqrXcLb2oscDf0KQUwG4R8bvUfvJvI12khye8ZvrovuaSafcpSI6XJYXuXm2VNG8sHVE+TxjQMbP/wxfS9cFrKrWn2cMEe1SqP/ge5Yduyvdp0K+eJOfcn3qwjf6DppyTqX7AjqXwiFijb/UvMQMnav2k4rk8/2LtbQCB5yiHJn6/TPV/tWMv30ZP77dJ77InvDe6j01v/BaMn5v+R0/kAPosdhDTphywMxvDrnh3s8veW7Qi2+4//Sn+9P4C/x5bfo3+tyFD3rxjb0eW7XPTQv3v+jqg3v6rgvV/QQCWJ1irZDcXvR44E8IdSoA98j4zbuPUnjGb6LB72tmb3UU/Ptv3H1x465u3uiSecaAjF+8wdfGddWmc4gHHjjj4gNWPv/ltY8es27h8T++7eSf3Fjqx6W6T08CJj09q5Tkk39y4wk/vvWYdfd/ae2jB7/8wpDr764OT+6B1c3SqZLbi15DTs6Q/RtyGmvGX5BMIPBn3gpT3ddQ1+fum6lhw4lYiCjkixp/w1eRUD1vD/zC3UsPe+X7J//kxokrL5n89Kyex87Ny9eT0HuWnT35qa9Pem7OhB995+jXHv7c99cO/drpVeDsDWAVyrROZnvRa8jJmQrAQSg1aSMTAQT+zF4UCDN7qyNSxs9r/NXNValkLITq+pgLgR8UbWQi4OeBn1+6cuy6RRNemz/5sXNRpG9oY+n0U9ZcffJPbhz04huHfekvM0EIIfoBGDJjJ41tL3oI/GnNkQpAzfg14y9AoNIsRDP+QHg9MoZ9r7lt+KtPT/jR9UlSeb9JJ750xYhXlw+54d5AuMzhHgCaQjqeot/jr8jEqdxPa/zt+Fv9okbYrhq/5Vv4FPhpdVrjF1Z2qeGVrREePHnG3qteO/7Ht0965hv4nn3mO/nN6n30rAnrrj3gB6v3m3utB0oWJNtbpY6Lg12afo/fjo93b9n9a/HkUjpoxl+Q7+JRf+aNL9V9DYkyHlhlqtcQonhdn2uFhWiNn8Pi3i7rgQeed+mhrzx7ysvf8su8E46a9PycL69dss+NkZP+sgC6m6aTODXjr8iaqdxPa/x9/zyB5QeBP5MnVYUGpXEE/kz1GkKkjJ+U4W16RwFK8i6t8QMWe6OsB+53+fUj1zxBf12/oUX9XX/h39Rt8vKZx75+396LnrQDUra3LIBl5XcG/8pVazMX0l70GnJypgJQM37N+AsQCL/q5mX82Hvi+3vmx3AdOlVC2YxhnwWLRr320OSnZyXM3f2m7lk2Y/yPb/3cilfjmrIsgHFnb4s0zfgrslQq99Mav9b4CxAIryqhxo88nmQi8PM/1YdKFUaBEq5J50koWyPs+4t7r983+akLW1DXX9z314G4nvRuf1x/0Bp/CJ7tRQ+HT9ozoez+jaWtZvwF+S4e9Wfe+FLd11Aa5+6bqWETiMj4eeAXf3ZQdImSfxNW0UwdynogAr9f2p12FAX+uIYoC2Dc2dsurb3oNeTkTAWg1vhtBf5hR4xC4G9UiaulNX5EdwITe09k/NTLS/6Z4CuR/kH0Ujj0B/4LzCJ68ynI+Est2c6cqshq16otve1Fjx8+CdFOBaBm/JrxFyAQmJQg2GdW7vHoInCWrh1eNmPoD/wXWnL3Ba/d+ft//5c1f7sOPFu3fbjlvZ/jY2FjyebHdny2o9SQQplTFk/TjL9pfl7W/ZqjPwJ/WpVSAbg746fKAV18tM1xMDN+jg9VaDh/Pe28jJ/r1pA2D/z483zQjQI/gYZaYz0YQodWz0sZg/taEPiR34t/Sa9n8bTFu8L2L37zHvEseO3Obb3b3+3/aPITG6cj8KNCb/Jwfsc2Mn739Rb6ElKuiDK7x59R4y/EuWmY8MCfULey+zcWzprxF+S7CPyZF8NU9zUkytx9MzVMTuSB36zcYyHJ9WypAmU9EIHfkmGv+dt1f/yPP23d9iHxiI+WgehC4AclSkMz/qZ5aVn3a47+DTk5UwGoNX6t8RcggOuwXwOBP3M4Hl1k9ipRILBzew/9gI6EFRR7oz/w22r8W977+Y7Pdny84+PFmx/rWTzt3d+89/t//5ff//u/LHjtTsr+d/b/t+W9n1Mq/+5v3qNn+3/8jz9t692+7u036GPP4ml0b6AHBvQsgUZv692+4LU7ST4fS0QSK34j47evsVRvWQAtwk3rWJjb1aXf46/IXhHdr5SGmvFrxl+AQOAlHYE/U06qC2+mMs0nIrRA1bIA9gd+W43/F795b+u2D1HX37rtw7d//fcf7/iYV/2nLJ72i9+898f/+BMRqb1124cLXrtzyuJpyPjR4ETK/rdu+5BivxhreTbQ8IzftA7M1PaGfo+/IguW3b+x1NAa/+5vsdN1yazz4VE/7lOcJ1WNHzrggVWe/snpPPCbGLa3RmiupYZ3BRBaMFfZGiECP5Jps76+dduH7/7mvS3v/Xzrtg8Xb35sW+/2Z//bC9t6t1N+D/41f7tux2c71vztOsra6RJAYine//X/9X9s692OdwXe/c17yPLpSQANf7f/AkFjId98PwAZP/wfOHj7OVKucJncOt76JPGrwrXjb/WLdbV3/+LkLFx7uI9ZbFp2/wr8vXXTjL8g30Xgz7xqpbqvQRnuvkRsWtWcB36ojUZyAKFJKxoILdC2LIAI/HmJNT3M3/Lez5fsCvlv//rvqdi/dduHv/jNe1MWT9vy3s/7n/T3/Z9e3f/Frkf9SzY/RmIp8PNH+vSEgA/cuXMn3RXE2DzFmv9Wv2kdmKntDc34K7Jg2f0bSw2t8RdUuBH4cWvjDaQLnFhnG4Efkzahas6/go/ADw15IzmAXJnmtxFaoGpZAPsDf26Nf/Hmx+ipfs/iaVu3ffjx//f/UqL/7q7n/1ve+zkye7oBoHfHZzvonQB8L+Dd37zHvxEgMn48cqD3AzAWdLOBjB/LD2+UBdAyo2kdC3O7urTGX5G9IrpfKQ0149eMvwABjzsm/lRf5nf3ucBUF16uQ4vaCC3QuSyA/YE/t8ZPb/ZR7i7a23q3//f/5//c8dmOJZsfW/Danb/+l3/8eMfHloyfulARoMcA9NhgyuJpb//67/F+AMm05PrUpTV+2L0hjbLu1xC1xZ8NTahVKgA14++ojN98AFDqGhiLWTP+WEgKOQj8oJfNGPoDf27Gz/PyxZsf+9X//B+UeVP8/t9+9dfberfjKT2YRdZOb++Ld/4Xb36Mv9X/8Y6Pn/1vL+Ctfs34YdMWNcq6X3OW1pCjMhWAmvEX5Lt41J95K0x1X+PK8KI+vJkz1NzGs32aV3wUyjQBQKFSkz8i8EPJsgD2B/7cjL8w7U7IoBk/7N6QRln3a4jamvFrxt/ujF/8k/YI/Alv1oj0LjqkuvC66NZAHgR+6FYWwP7An5vxm5X15lC0xg+7N6RR1v0aojYdm3RaplUpFYCa8WvGX4BA2Us6Ar/LwPZmDC6ri86DwA/JZQHsD/ya8e92+7IAAnmzYVrH5OkwSkT0akYGOVLN84rpUgGoGb9m/AUIlL0RI/C7DEx14XXRrYE8CC3QrSyA/YFfM/7dbl8WQCBvNkzrmDwdRomIXs3IIPDXPK+YLhWAmvEX5Lta4xdX1MKPCPyFnMOPHJ3qwuuiWwN5EFqgW1kA+wO/Zvya8RccffCxPzf0e/wcjYjtsvs31tSa8Rfkuwj84qZGH1Pd17gy/Iv7Ca+xeJMfgZ8rmdduAoB5ujWQjsAP3coCuM8ti0a99tCkp2c1p3Lvqsmys8f/+NbPrXgVa4/SKAugZVLTOhbmdnXp9/grsldE9yul4UDGT3/8jy4U2gYOPPDjtgV86E/2mnT6M5D10xH4oX9tOuC7+wj8LjrQhRd4psKtLfMitABbZAyOGO53+fUj1zwxceUl9Adx6RX9VrQnr5h57Ov37b3oSaw9im/TH52NIhPWcbRFFP3rmQt/slfo3N79y4/KejDM9LGy+1fgnynThUcz/tZn/PyiB2/mxHramvHXgDMPLTRd2YzhgPMuPfSVZ095+VuuefbiaQ3hnPT8nC+vXbLPjffGxbksgJbZTetYmNvVpRl/RfaK6H6lNBx09Njx+mNBABl/Js+4E0/NpKciIvDXr8CQ1Y/QpMj4XXRoGoAuOjeKpyyAR541a+9Vrx3/49unPHfx1GUzWvPz2DmnvH7tAT9YfciVN8fFvyyAcWdvi7SVq9Zmqtpe9BIelRzJVABqxq8ZfwECjhdJzfgdgYrL5pExDJn33eGvPj3hR9c3JJV3UeOUl64Y8eryfW64Jy56w44Y5QFgdB3aK7C96CHwpwU/FYBa4+97tdVS40HGn8mjNX7Uk7TG711vA4aZPmb3T78a4eeXrRy7btGE1+b3PHYu/TO4+Ht8jav3L51+yppv05/uOexLfxmCVebYiDX+TPkeNm2RHK3xB9rXb//azwQX/9GMvyDf5YHfvBumuq+ZmhAl4TVWM/48o1RK9/bAwXc/etgr3z/5JzdOXHnJpKdnTX7sXJfMuz6eZWdPfurCSc9dPOFH3zn6tYc/9/21Q0+aWgWS3gBWoUzrZLYXvYRHJbdyKgAHMn5cE7TBEUDg50S0cV8DJW0D3ly/GnkZv12TpgFo17aBvSEAHjjj4gNWPv/ltY8es27h8T++7eSf3NicnxN+fOsx6+7/0tpHD375hSHX310d8iEAVqdVWyS3F72ERyU3bioANePXjL8AAX4/zWvjhb5hR4zi7Tx+0FNdeKFA2xuBAA49vmf/md/c54Z7Pr/kuUEvvtGcn70eW7XPTfftf9FVB/fMqNRGgQBWqlvzhbcXPQT+tCCnArAv46cqhf7ORAAZf2YvavyZvfVjy73ZnJ2expv0cAoP9sOPHE3ZvwsmVGF14VSeTASa5oHhvlSzBPXATL9ytEJ70cNR6bjSEJQsY1PtX834C/JdHvjNu2Gq+5qpCVHgzZkMKMNn9oYQeeCnpN9RWtMAdFS7OWwKYKAtFEAXAPV7/C4oefCkcr+BGj/dSnj5gdpdTueB3wQH9zWzKwluCPyZ+qAMz3uj6InAT5L5RHb5ZonLzs81p3aX8wPALscBjlEWB/5WP4QgC+SUbvY382/1E85wPwBVFv9U/HlHZc36AMCa59WMXzP+AgRcrrEI/MTs/mgh1YXXZVGt4FEAA82kALoAqBm/C0oePKncT2v8o3C7pzuX+C0yftGLjF/Q7TKr68U1NlOf2mr8mbNnrrq9NUL3NVbK2TQPzLRypQgEzqge6GId/rf6OX970cNRGeg/HA2Pdqr9qxl/Qb7LA795oUt1XzM1IQq8GR85p3sizke5tEXG7zKEeJoGoLvmDeFUAAMNoQC6AKgZvwtKHjyp3E9r/PIfpaZbG0pWPPCDiAbua6CgIeTUQ0fgp+l6J0zn8/LSO6ejzRul9Efg5xKobZeDEhcG2vnBhkaX8wPALsfB2x+0xk/Q+fkP3M8bf795MR0aZeWIo9JbTtl5BT8AFPSq9dGMXzP+PgQCHwYg8Je986a68JbVs7H8CmCgaRTAEADbix4Cf8jyw8emAlBr/J1c46eMn+6SiO6ZNS33b95DGpfDAz+nF7bbWyPMxKFwvdFH4ZlTdMn1ryXJjOqBIZ7TXvQQ+JN4HTBPtX8149eMXzP+Ah8Iv9dXJyFVxlDdimqWrACGAN5e9BD4Q5YfPjYVgJrxa8bfh4Bm/LiDp80Ays6eKmMoq2dj+dubszbBY9uLHgJ/Ws9MtX814y/I9vjLfeb9LtV9zdSEKPBmfOSclkK+pYtLyGvzR/15PJn0pgGYqWSTiQpgoHUUwBAA24ueOCpDQAgZmwpAzfg149eMv8AH0uYEfPad23voB9leqoyBa9XqdsSc1bROq5GBj/35DXP9Hj9HI2I71f7VjF8zfq3xF/hAyI0+7lgeWkhyqowh7roSSosIoGmdhOuKO7V+jz8unpAW0f0g06WhGX9Btscf9Zv391T3NVMTovDnV8OPHK1v9Ue8m+dhXiedhxaat2keWCcaUebSjN9lj2jG74KSB0+q/asZf0G2xwO/eZNKdV8zNSEKD/zDjhjVO2E657QU8i1dXEJeW2v8ecjEpfPAT5Kb5oFx11uDtIgAmtapQf96ptCMvyKcI7pfKQ33yPhppHmP7ma6Gfg5PnRfaw4+PPC7Z/z0FX++Lmq7r4sH/lJyMvMt93nL6tl2fh5aaC08Y1DcPOyLk5fG8t9l8TSt46EPTZqZO5bVJyJ/ZsY/7IhR7d2/OCq5xeu3V6r9qxm/Zvyyxi+eE+AksjR44LewmV04ds0upZgI8NBCvQqgiVIpSkQATeuU0qSNzBHRq3n5CPw1zyumSwXgHhm/efdRCs/4TTT4fc3srZ/CvVlk/IjNRCdOaMi/xy/eDABPZhZCvRBu4cmUk5kxZHKWldyR/Dy0EEpN88DW2S6iB5rWaR0aZXdNRPRqxgpHZc3zCoRT7V/N+Lsl4+exGU6P6yev8WvGD1ia1uChhXRLlTE0DRlvfSICaFrHW6u2DIyIXs1LNs/AmhWg6VIBuEfGT6qYN6BupvOM38SB7msmnTCsn8692T3jFzV+ZPz/f3vnGuNVdS1wkIeDgDyGOthiigMUqCJYYZ7WekHUi2h9VbxorVq83OKVWl9XG7FlUEBRQSvC8JgZhudHE2+8H5rbm5imXwjkpvF+6BcgafTDkBhLQhPbJtzMrJk1a84+/3POfpy99v7/F5lM9uyzH2v/1tpn7XXW//wpLj89VWjZT2rEUHxeLs5c81LXAjLQiEG4GegF77zQl/7W5alqx0AemDQRFwY7Trz7F2+VVOP+OXPtX4n4qzbiR8uGWwn1zYlL+P/3QEuJ+PHmG1qBuhaQDf1WaKLGIo9DgKp2YoFgLKdDesYymHVU74Fm41j24gI4IuJXzz5SQyN+lQY9r6lXeWuoZcO38YPvlxw/r15sZqeuBcYJ2QJtVuqtb2rMaja7qh2zcSLq5ZCe51Xj7dHzvIlnOVz7VyL+qor46fETLRsqC0b8iV50wIwyHTyjmXqJ68CrShJFDXUtILAAtFScQ4CqdixlC6e7vMdfki4cmp+WhIOOH049ak+ppxG/ygfOa2p9CNyoC6cRP3yxD1wFOanbpr2Kr4uOQHvlckjYfW57OjienRpPf+EAACAASURBVBOVVVyvuhYAKNzABgw4JCzQeJwZM+eo2jGQRzXmEOw54fhxXQl6WJ9YRYD1qTc6/3Jy7V+J+CXin0Pddup+SGxj9U86gno1oyZx48hoKZdSXYsAtDQMhwBVx28pWzjdE44fBXNID8f0UzC70TmXjQug5Pir6rv64cQKv6ll04hfzfFTt53ohdEGHVkt0xHUqxk18eYIC5LJWLvBCNS1wMhcOUK362IczaEFqtphXJeBdWVIm/rNfd+4eq5Dehmzu10LjIY3Os/zJtbCtX8l4peIXyL+HBtwfsx3OCBXxOBwCbxDCcAi/CXiL0LJoA2X+Ynjz7npZ+f4udRW0MISL+bht/TgaRfGofF64lLBiegIBbtAs8ABaq2FpbEAtMQuAG0AxkvP7EZnwyq1LxdAcfzi+CXiz7GB1B0bSCXXjSOQ5duLIQBtGMZLr9YdP2+GI/zZacSvSsuVoVElSa3B7+CDqxDxu8rx42jw/T8Q9CcyWKlS0Tbx5gjpKhjLgVsgI5lc2wPZxAJtdBQvPXT8Be3EhlJGX679KxF/TrRHHb96NI7rwGvwqB+7qGunl+RRv8rHT01cFuiHidYsAlALV6JxvPTQ8SdW5PlPLoDi+MXxZz3qp94dvgAANwa9JI4fsXgucN04PC+zvOkEoA3beOmJ48/xfDZmUQV9qzLiT7hw+l39if1AvXuiF70kjp/L1OO983IRS8wrABNAtP6Ml17iRqe1aoeNuQAORvyQ54D1SJlyUB0/5QMZGto+5DK4apAfPvCPa6nr3Iz1sCVgIVgPf9LXBCo5fhwTM1sZTDBHmNGmyDg12wZuHFrMa5ZVqo3hnVcYpvKBSnyPP9Em3v2Ljp9X71z7Vx715zzwUB0/mD78xrsGrYyiTF24RPxRqCxVyHgtMHU5/isFYBHm8h5/EUoGbbjMTxy/OP5+Ahi+40EYjBjr4U96XKCX5FG/wZ530oXrxuFE+BAGEYBFtCCOvwglgzZc5ieOXxz/CALi+A12L2MXrhsH45LdTi0Ai/AUx1+EkkEbLvOTHP/gd/WDztR8j/qon7aJK8dP15jI8WPeV3X8dL0Y8SdCfPonbZ9bjjdHiJs8d43IlvJ3VYYbB68MrtbCMg7eeYVhBn/J8QMc53uZa/9KxD8i3kXtYkF1/Hhpxsw5eNeglVGU0YUnpFUdP22Avainhwb0yT/tkl2OF2D2urxdFYCWqAWgDcB46SVudDYQbPpyARTHL45/BAG6HxLePeMS/ZSA1jbgsnstIUNuLAAttSMAbQDGS4/ezWwIWPblAiiOf4TbU7VYyxG/OH7VHkKr4bpxhMbBWB4BaIwu9kee4Pttlm/fl8v8xPGL4x9BgB6ExfHbb+yyR+C6cZS9Lm/jC0Ab1PHSozc6GwKWfbkAiuMf4fZULUrEj8l7ulUSZwJ51K9ajp8arhuHn9V5mEUA2kCOlx69m9kQsOzLBVAcvzj+EQTofkh494xL4vgt979xd64bh7HAoXUUgDYaiZcevZvZELDsywVQHP8It6dqUSJ+ifhVq+CquXS+HX5QAK4bBwoQe8EhQFU7scNB+eU9fkThtuDQ/LQEE8cvjn8EAXoQ1or4tcwOG3PZPQoQV0F1LQLQUoMOAarasZQtnO7i+EvShUPz05Jw2PHXNzRiTykDivqGRoz4U5lcO29Jav2MmXMCr8c38lU54RLUQ7gP5YwzgfF6we5VGZC/2CRlm3At9Q2NeOMQhmY2M3vuYlc2htqpPl2A41fXFe/+pXczdV1mtmQwDtf+HXb8aP1SoATQ8dNKLKPasCaWAjr+bIHxOT/8n7ywWyCjD88DsrvnXo0XYO7SymiArgUHF4CIwqzgEKCqHTORAuwlEX9JSnFofloSiuMf8aBbZSeOnzKhxwV6JqBttMpcdq8lZDiNVdciAC214xCgqh1L2cLpLo6/JF04ND8tCcXxi+PPIUDtSRw/peG/rLoWrhuH/7WXNKNDgKp2SpI5nGEd0vO8KPqo3/PUdDougKOunbcEfmbPXSzla+ctSXDAiD9RD6wW3Xhzar06TmhsLzStNND7haaVuN66zs1YNl7vohtvNu5rIH/sc6FrwbUDwNjXxSj/9UvaXe1N1I79vkD9upKtpHHi3b/o+Bltb/bcxVz7VyL+nHgXHT89pmGZ67yGAhgXaOxefBDaSx71F+fmqiW6FhwwXgvEJfAWHAJUtcO7NA+zO6TnQVo6BTp+Wum/zAVQHL84/hwCdDOI46c0/JdV18J14/C/9pJmdAhQ1U5JMoczrEN6nhcljl/jvu9ZNyFMJxE/1YI4fkrDf1l1LfHeef3TS53RIUBVO6kzVlOlQ3qesYjjH3zjHN5BlN8JAuj4E/XwdjW+x596Fd/ADvDqhaaVBlLRXnWdmw1GSDCBt6jtx6mREdC14HrjtcCEJeCKPNc7tEBVO57X4p+hQ3qeWVHH758bzsi1f+VRf84DD3T8qQfSqA+8qSvKrqQRf3bLglfjBVhwgW6boWvBYQUgojArOASoasdMpAB7yet8JSnFoflpSSiOXxx/DgFqT+L4KQ3/ZdW1cN04/K+9pBkdAlS1U5LM/ocVx18Sc4fmpyWhOP4ctycRP7UncfyUhv+y6lq4bhz+117SjA4BqtopSWb/w4rjL4m5Q/PTkrDf8WO+QcoqAXT8qZS4MjSqnLo1NFtfvK9Zr4zx480RptpDxkqdtEfXgqPFa4Flsyo4vkMLVLVTUAbUZrDtwfGrcjqk53ntkuPPCXm1zhHV1xgdf+rSuM5rqcJoVTqP3bVmx8bxAsQl8BYEoCV/AVgEoET8RSgZtOEyP3nUn3PuEcdvYM3Fu3DZfXEJA28pAC0VJABtAMZLj0b8NgQs+3IBFMcvjj+HgKVlZ3fnsvtsqSK6KgAtlSUAbQDGS08cv+T4swhgxK/mt+B/Q0+t95yvMpDBebbeQIYZM+fEmyM0W6/zXpLjt9xrYoE2NhkvPer4bQhY9uXavxLx58S76PhTz8VRH3hTV+S5Ml6AnkFVmk4AViJTsF4AFgSV2ixeetTxpy7NTyUXwGHHDycXWK2UkQM6/lQmeF7D9mguqe0xOmFvjx/u45UT7J5XBnZd2NgM3jiEoZkeIWY16yvM492/1PEz6pFr/w47frz7SIESQMdPK7GMasOaWAro+HkFjhcgLzecXQAiCrOCADTjBr3ipUcdvw0By75cAPsdP5x35HcqAXT8qVcx4k+9GjJbyfGHrJ3issVrgcXXWGrLeLPUPu858h5/SbS59q9E/JLjzyFgeaTN7s514M2WKqKrAtBSWQKwCEB5j78IJYM2XOY37PjhRAOiSxk5JCJ+rIcCntcS9RijBFuPj/p5dQ12zytDsDoCwbJtCW8cwtBMj5LjL8KNRvy0fbz7lz7qZ9w7XPt32PHjXUYKlAA6flqJZVQb1sRSQMfPK3C8AHm54ewCEFGYFQRgEW4S8RehZNCGy/wkx9+IERWc+xK/0fEn6qEXRvypV7NH5r0qOX5e/q5mj9cCXRGwHEdy/EXuXTTip+3jpadG/HRd3spc+1ci/pwMNzr+1NMc13ktVRitSon4tXAF2zheCwwEqQC0UUS89KjjtyFg2ZcLoET8EvHnELCMqLLPzvFGDNnr8naVK2Io1Sq80ZPvjrTUY7z7lzp+n/aWmItr/0rELxF/DgHLI212d64Db7ZUEV0VgJbKEoA2AOOlRx2/DQHLvlwAJeLPiXfxUX/ipAYnZa7zmuU5vb6hUXL89gxDGCFeCwyBnkT8llqQiD/VLxSnyrV/JeLPiXfR8aee7LjOa6nCaFVKjl8LV7CN47XAQJAKQBtFxEtPIn755r4sAuj4U092XOe14ifKSi0l4q9EJq76eC0wEM7xxqypdyTPVOOlRx0/I0mu/SsRv0T8OQRsAoLcvvFGDLlLK6PBpfPt8IODC0BEYVZwCFDVjplIAfaS9/hLUopD89OScFR9QyOed6QM52XKgUb8tB7KcF5T69VxQmtDI35G2TBiYJQhIvtH14Iyz567GMvC0GDfAUAnDKl2qkwX+B5/Yl3x7t9ExJ9YlxN7KDIm1/6ViD8n3kXHn3qe4jqvpQqjVSk5fi1cgTRG14LyxGuBuATegkOAqnZ4l+Zwdon4HcKkQzk0Pzpsblk+1S+f6s8hUGrWECOGUmfB83vss6BrwRVx5QhjJ4nyO7RAVTs4C+or0hqM+BPyO6SXGLlsYomI3/PsuDqu/SsRv0T8OQRyD482DbgOvDYyM/ZF14IyCEBEYVZwCFDVjplIAfaSiL8kpTg0Py0JJcc/GO9Wysfgo35ogCc1+FNy/JW4FazHiKFg+wR/OKfXTl90LciBK0dYNcwlx4+2ZKDTePdvIuI3WLsNN+zLtX8l4s+Jd9Hxp56nuM5rqcJoVUqOXwtXII3R8aM88VogLoG34BCgqh3epXmY3SE9D9LSKajjp/Wey1wAJcefk+FGx49nNJoN4srQUBnMyvRT/WYjOOmFEYOT0VJ1VE0jo2vBlcZrgYHoxaEFqtoJZI1oLc7lcUjPuWzZq6aOP7tlqVe59q9E/BLx5xAo9QjMdeAtdVHlDY6uBacQgIjCrOAQoKodM5Ei6uWQnudVU8fveWo6HRfAwRw/ZDjkt0qARvzqVUwQqpfCqZk28Kp3Qh6I+BOV/v+MAqB/LJVmRNeCDQQgojArOASoasdMpIh6OaTnedXo+D3Pm5iOC6BE/DnxLjp+ekzDMtd5DQUoWJh099pES8nxJ4BE8Se6FpQ2FgtEgUMrOASoaie0xTqXxyE957JlD4iOP7tZ2Ve5AI7I8cNhRM211HI9On48qVE+6qf66dWguE145GeTb1mF+Sqa42eUMzVHyCgP8glTj+haUE6aIxRuoDUtDhhyUY0bjFPf0Khqx2wcLfmhMdoDXYXDcVLf469vaIx3/1LHn6DnkFtiZNUeuPavRPw1EfHDubXuyWfr1r84dcnNM2bOkYi/7LN8GeOja8HBuSIGFCD2gkOAqnZih4Pyy3v8iMJtwaH5aQkmOf7+/6og40eN+GljDBdoZcjly9e/OPa9AxMefkpy/CGrqZJs6FqwQXQWiJIHUnAIUNVOIGu0F2P33kOpgziklzp+eZUY8Zc3RZGRuQBKxF9DET8cCS9/5tUpBz680LRy0qqHtA6JZTTmOvCWsRYPY6JrwbkEIKIwKzgEqGrHTKQAe0nEX5JSHJqfloTyzX21+M19457vuNC0csqB3eOf23xl2+1wMlXzTx7qMUfoYS7Mt1XTXBAxsOiuOnhiyCUMM/YF5vgTbeLdvxjx8+qda/9KxF9zET8cDPtz/Ad3ze19ra6zq+6nv5i2cKnWgdFVY64Dryv52ccRgJYqEIA2AOOlRx2/DQHLvlwAJcefleCvb2isshw/HNjrGxovNK0c+6t3G7rebjr+s1k928a8s++KB5/Aq94KGG95m7HKJhKAlgoVgDYA46WHjt9m+fZ9uQBKxF+7Ef/0xkVj3vjgm91vtnSuXXLs2RkHd43d9PbklfdbnmG1unMdeLWEDLmxALTUjgC0ARgvPXT8Nsu378sFUCL+2o346xsap83/3mU79l3Ts7Vlz780H/zJgiOvTNrfOX7jq1O+d4v9YbbICFwH3iKyRdFGAFqqSQDaAIyXHjp+m+Xb9+UCKBF/7Ub8cFydtqh19Hs9sw9taflwTevOe5sOPzX7UMf4zp4JP3mm/trr7Y+02SNwHXizpYroqgC0VJYAtAEYLz10/DbLt+/LBVAi/pqO+OHEOuV7t4z68Nic3l+1fPBQe8fylg9+tOzE0zO7375s+56JP3zU/lSbMQLXgTdDpLguCUBLfQlAG4Dx0kPHb7N8+75cACXir/WIHw6tU1pXjt5zbN7hV1t/82B7x4r2N25v6Xzk+qMvTDvwwbhXtl/5/VX2Z9vUEbgOvKnCxFgpAC21JgCLAJT3+ItQMmjDZX4S8ddoxK+eVSffctfYvYcXHHml9b0H2juWt3csb3vrrubux+f2bpq4b//lG16e+t0mtZdlDdeB11LscLoLQEtdCMAiAOWb+4pQMmjDZX4S8ddoxJ96OJ288r7xnT3XHX2pddd9/XH/wE/rrvuajvzrrJ5t43Z3XbF2/Yyr56b2NavkOvCaSRtgLwFoqRQBWASgRPxFKBm04TI/ifgl4h9BYOKqNRP2Hbzh2HOtO++FuL//95YVLbvX3Hjs51d1vTvm9d9MuuNBg7NtaheuA2+qMDFWCkBLrQnAIgAl4i9CyaANl/kNR/zwBZxwZpEycqBf4IMHOuSD/6kitlfbwFdCRlQ/8d4fT9q/78ZjG9ve/eFQ3L+8vWNF2/Z/bt7/6MIjr0w5sHvci69PaVqOHIzXCAde+3Gqib/WWjBiEIZa3HA/wpfOmvWtHeb4lb3IDdYe7/7FD/cZ37uc2AzX/pWIf0S8qx7ZqONXr3Kd11RJ3NZc8dBPpxz4cOnRDW1v3z0c90Pi/517mnuevPbQ5gn7Dtate27anBtspq5WgDZMtPoKQC1camMBqDIpXhMvPXT8xRdbRksugMMRPx7lpEAJoOOnlVjG8xrWVE1hwqMbph34TdPR9W1vrx6K+wez/u0dK1rff2DZ0X/7ZvebY3YdmHj/T4xXXcUAjZlodRSAWrjUxgJQZVK8Jl566PiLL7aMllwAJeKXiL8igbonfj7j4K6mw0+1vXVXIu7v/8z/1ttb9jy86OgLMw7uGvPrnZN/sNrgRMx14DUQNcwuAtBSLwLQBmC89NDx2yzfvi8XwOGIv3byVXBwK7hejPhT21dljp/yuXz9Sw1d7zT1rmt7c9VQ3N+f7x/6Wd62Y3Xzgce+c/jVK/fvGb9x07Qb2rRyZnDgTWWrNQ6VuabKGDEIQzO9S47fjBvYW7z7Fx0/732Ga/+Omj13sfxkEEDHn9rm+iXtqfXVVDnxF7++uvut5kM//f6O1T/YenvqT/v7DzT3rvv2oS2Xd3ZPefLZby+4qSCBWgBYEIVZMwFoxg17CUBEYVCIlx46foNVO+zCBXA44odzn/xOEEDHn6iHP/G8lnq1airHP98xq2dbc/cT7dvuGIr1MegfKmy5rWX3Qzcefebq7h1jdnROWrWmyPJrBGARFGZtBKAZN+wlABGFQSFeeuj4DVbtsAsXQMnxV8xwQ/4GHX9qOocrQ5MqTKmVY1/Z/u1Drzd3Pd72xu1qvh9r+l/52/fId4/8x/SD7497eduVzbdlS1U7ALM5FLx66Xw7/GB7AYgozAoOAaraMRMpwF7yHn9JSnFofloS9kf8kK2R36kEqONXWWGOP7Wv2j6QmunXLJh054/qnnx27Ka3R+05XvynsffXzQcfa3995YCnX1Hpd+s79wx81+9rk/Z3Fh981J7jo3d1j3tu8xVrnpp86+pAWAWlWepagE+kFhgOVcjxO5FH1U7V2DB9j5+yckjPMysa8dMVeS5z7V+J+Gsu4p+y9Na6TVuv6dk67/CmRUefX3Zig+5P84Eft28Br9//lf6Vflrff7DpyFNag990/JmFR16efajjG107x730xtSFy7SOsVXfmLoWWCxXxFA1qB0CVLVTNZQk4i9JlQ7NT0tCyfHX1nf1T3js3yfu37f42HMtnWtb37uffFZ/KFU//Il9HzU/2Hr7iA8NvH5b247Vre890Nz9xIIjr4zZe2TiPY86zKjFPhS6FlwIV44QBYi94BCgqp3Y4aD88l39iMJtwaH5aQkmEX8NRfyXr3/xqq53lp1I+T6+SlF72fUDjj/9mUFz59plJzaM3ds7ZemtWofZKm6MrgXXyBUxoACxFxwCVLUTOxyUXyJ+ROG24ND8tASTHH9jdm6panL8E1etGd95qN/rb7tzwJ1XzND7vDoU8cN3AyR/t+68d/7hX47e1TN97hLPubdsq+C6Sl0LyMCVI+Qi4Hxeh1lqVTvOpQ1tFzik55mV5PhzQl6tc0T1NaaOX10d13lNlSS7Zvq3vnPZ9j1ze19r2fNw2UG81vgZET+M07zvkau63h2/8dXsBdbIVepaYMmxWGCwCnIIUNVOsKt2JZhDeq5EKjgOOv6C7UtqxgVQcvw1keOfdn3L+M6epqPrRyTU/abzU6ceivgrfp6gbcfq646+eNm2D7UyWNXaGF0LLpArR4gCxF5wCFDVTuxwcuV3SC93LrcN0PG7HVZ3NC6AkuPPeeBRHRH/le13TN6/t7nrca1w3EPj3Ii/fcttS48/PXrPsenXLCzp0B3RsOhaUGauiAEFiL3gEKCqndjh5MrvkF7uXG4boON3O6zuaFwAJcdfEzn+Sff0PzBv2bt2wJcHkd0HSYYi/mR2n8rZ1Ltuwr4DU8n/AhBaptObPNS1QE5UcvyWuWGHWWpVO5ayebMrYzkd0jOWwYwSOn7P8yak5dq/EvHXRMQ/Yc26b3Vvb9n9kIcgXmuK/Ii/Y3lz1+OT9++9snmF7mm6+tpT1wKr44oYqoatQ4CqdqqGUqWFOKRXaYqS6tHxlzR+wWG5AA7n+OEkAikKKSMH+qgf8zfIB89r2F5tgydKxjZXrHlqyPFDNn3E/7BHsu++60dG/OmyoeMPk61P/aJrQVvCHCHapE95qmAuiFmRp42NoXaqTxf0m/soKzC/GNeLjp/Xhrn2r0T8EvGnv0avFbgbN8aI/9KlS5UGQcdf8BBdxc2oa4FlckUMVQPZIUBVO1VDSd7jL0mVDs1PS0LJ8ddEjp9E/FnZ9LN95z4+/cmAA+7/HMDJM6dPnjk18Dwgqxe2b+9Ycbbv3Nm+c7Qmu4wR/5DjT/n8ATp+PJtDhFGDv6lrARr4zKkGaTixB4dZalU7TiQMQbM04qfyOKTnmZUa8dN1eStz7V+J+CXiH4z4N/Y+33fh/JDb7q8kXrzoUwHdLhLxa53TqWuBjlwRg5bYITd2CFDVTsgL15JNIn4tXMUbOzS/4pPWNzRKjr//PX4439HcFZZrJ8ff8dH2i19f7LtwfmPvC+0dKzo+2kb+LJr7J44fX83P6jsy4pccf//zJ7S9ImWuHGER2aJo4zDHH8V6M+51GfLTiB+awTiS4zfjiQy59q9E/BLxD0bz3Z/2Xvz64ld//Uv3p73tHcs/Pv1J34XzfRfOd3y0beCx/6lLQ//wqUD3p71/+8fff/vZ7/ounP/bP/7e/WkvOn54fjBwjHgeHh5Ab2jW3rEc+v73//0P9B161J/yaAEf9WsdaWukMVfEUDV4BaCNKuOlh4/6bZZv35cLoOT4Jcc/mL8HT//HP38Gef2TZ0798c+f9V04T7P+7R0rwGFDGyj3XTjf/elhyOWj4x8q9Ofsafnj058M+P7D0Pf8UN8hxy85/sHnTxBJ5P7myhHic7JcCQNvGW+WOgTy8dJDx89rn1z7VyJ+ifgHg+yTZ06d7TvX/Wnv519+0fHRts+//AIi+AEfPxyIQygPleQQMNgAfPzJM6cw1ocHCfAUob1jOXaHvqfOnh44MSwfcvzDE0F9u7zH35BlolwRg32sE8gIAtBGEfHSQ8dvs3z7vlwAJeKXiH8w4j/bd+7kmVMbe1/4/Msvfv+nP3z+5Rcbe1+A00B7x3L4BMDQw/5LA0/7B6P/gUcCg5H62b5zIx/pD7bBjlA4eeY0OP7//N//grcGhhy/RPwS8esRsIzY4o1ZJeK3IYCO39J+bGSob2iUiD8rrLE/WBmPQD/cpw7CdV5TJcmuyf3mPgjE4an+yTOnvvrrXyCmh+f/h39/7OLXF6EGPvQHaX5w3kO5gP5g/WzfOYj1MehPRPwYxxPH399xyPFLxK+3EWKxwGz7ZLwqAG3gx0sPHb/N8u37cgGUiF8i/v6In7jnZPmri199dOrji19fhMgeHgZkRPxwJtjY+0LfhfMnz/Q/yR86Dbww8Jm+w7//0x/wswIS8UcaMfDGSQ5nl4jfxgLjpYeO36EtGZCUiF8v0LE/ahUcoUYi/o9Pf3Lx64vwAf6Nvc//8c+fbezt/zQ+xPcfn/7k5JnBT/WfPHMKTwmpET84fvzcPjwPoCmA3372O7w64Pgl4jc3fq6IoeD2Cb+ZACyiI3mPvwglgzZc5icRv0T8gzl+rW/og8/w2/8e+R5/uiT4Oh/v2TzM2bkihjBpGEgVb8xqEF8a8IFZ6Hv8dN546UnEbx5tGBxwoutSIxE/pt49F+Sb+yx3BFfEYCl2ON0FYBFdSMRfhJJBGy7zG3ydD06CILeUKQfV8VM+EG/R9mGW076rHz5GB5+iZytXiPhHyIMRf5hsqT34L8ONw/+8VaMLvPMKwwydYsSfaIMRf6IenwoEW5+I+Lnk5Nq/8h5/zgMP1fGDicBvvGvQygDLuZ/q9xzo43QY8WONWkg4/gDxMooUiwUyIsqeWgBm84GrEvEXoWTQhsv8JMcvOf70zPqAA055q95tPUb8GZ8wQMcPMZn8pgQkx09pGJQxZjXoi3FtzfaNl14i4ufSINf+lYi/JiL+iXevvarr3Za9a9V4mremSMTf1Ltuwr4DU29oMzhQV30XroihasAKQBtVxksPHb/N8u37cgGUHP9gxA8qhHMfLauP+mmbWHL8V9585+T9e5u7Hifx+og8Olc9ifgryLPltqXHnx6959j0axZSvUgZ7BBuHNQmpaxlG3jnFW5a3KAxRvwGffF5CUtfdPy8eufavxLx10TEP/W65vGdPU1H1/PG9+rsuRF/247V1x198bJtH8LdQX4nCKDfStTLnwUJCMCCoFKbxUsPHX/qurxVcgGUHH9N5PjrZ82/bPueub2vtex5OCObTuL+0rP7MBeJ+NNnbN73yFVd747f+CrGB3BCl99AgCtHWDX8MWatmhX53Cnx0kPHz6t3rv0rEX9NRPz1DY0TV60Z33lo2YkNbdvuVCNvrprsiL91573zD/9y9K6eaXMWezuDxzURV8QQF6UMaQVgBpzcS/HSQ8efu8ZSl7UWLAAABdpJREFUG3ABFMdfK46/vqHx8vUvXtX1Tr/vf/tuLk+fmDfD8Td3rl12YsPYvb1Tlt5a6t6LaPBL59vhB2XmunGgALEXHAJUtRM7HJRfXudDFG4LDs1PSzBx/DXk+OsbGusee3ri/n2Ljz3X3Lm2ddd9bW+uSnhiz38mHf+W29reuqv1vfubu59YcOSVMXuPTLznES2Dru7GqmvhunFUDWeHAFXtVA0lcfwlqdKh+WlJOCLHDz3VnEct11f6VD9QUj/VT+mFyW3Ksn+q27T1mp6t8w5vWnT0+WUnNoTzc9PxZxYeeXn2oY5vdO0c99IbUxcuC58nlRDK5emduhaYi+YIy5u37HUxjo93XpCB/tblqWqHcV0gfGq+X3dd9Q2N+M19CT6pOX6D8V3JWXwcfNRPV+RfX1z7VyL+2or4YU9Ov2bBpDsfrHvy2bGbdozaczycn9G7usc9t3nCmnWTb12Ndy4pIAHqWqAS/Ra2kYIWAYcAVe1oSRJyY4n4S9KOQ/PTklAcfy06fi0TKbUxl92XuqjyBlddiwC0pO0QoKodS9nC6S6OvyRdODQ/LQnF8YvjzyGgZU+6jbnsXlfOQNqrrkUAWqrGIUBVO5ayhd/dIT3Pi8VH/Z7nTUzHBVBy/Cnv8YNuIN9TfTl+3pwWnb2+oTHeHCFuYLoiKFP7oVft66lrgZG5coRu11U2t4zx8c5LV5TRPkPvqnbMxrG3E2/zxrt/0fHb691GX1z7VyL+nHhXdfy488Fv0T+lrEsAb7u6HWuzPXUtQEAAWlqCQ4CqdixlC7+7Q3qeF4uO3/O8iem4AIrjF8efQyBhqW7/5LJ7t6vwNprqWgSgJXyHAFXtWMoWfneH9DwvVhw/533fs7INppOI3wBa8S7x3jiKr9FhS9W1CEBLvA4BqtqxlC387g7peV6sOH5x/FkExPGXuiHjvXGUiqXS4KprEYCVWBWsdwhQ1U5BGeJt5pCeZwji+LPcnmdlBDidOP5SlRLvjaNULJUGV12LAKzEqmC9Q4CqdgrKEH4zeZ2vJB05ND8tCSXHn3PuEcevZU+6jbnsXlfOQNqrrkUAWqrGIUBVO5ayhdNdHH9JunBofloSiuMXx59DQMuedBtz2b2unIG0V12LALRUjUOAqnYsZQunuzj+knTh0Py0JBTHn+P2JOLXsifdxlx2rytnIO1V1yIALVXjEKCqHUvZwukujr8kXTg0Py0JR333hlb5EQJCQAgIASEgBGqEwKiZs+bDT8O3voNlWqjxeoz4UznMW7A0tX7mrPlSX8Su5i1YSo1NuCGNVPvBmBKbIcDU9sITQVXiM3f+TdiGFiq1z6hXtVM1/HfvPUTh4LrQ/PBqBh9sQwtc7fFT/VQYXFeisrx6BOiZw7DjV5cqNTNnzUfHn0oD1ZZ6VSpzCQjAXES0gepaBCDlY1B2CFDVjoE8YXZRHT/I6ZCe54VXcvyexeACKI5/8IFHJX2L469Exkk9l907Ed7/IKprEYCWWnAIUNWOpWzhdBfHX5IuHJqfloTi+MXx5xDQsifdxlx2rytnIO1V1yIALVXjEKCqHUvZwukujr8kXTg0Py0J+x0/ZBfkdyoBjPhTr2KOP/WqsM0lABlWoVeQALoWbC8WmGtjyCq1pUMLVLWTOmO2PGFeBcevyuaQnmdW9FG/ui5vNVz7VyL+nHgXHX/qeYrrvJYqTIyVAlBLa+hasJcARBRmBYcAVe2YiRRRL4f0PK+aOn7PU9PpuAAOO34441CZoFzj9ej4UzngeU24pfLBU3wlPqrdm41Tafwqq1ddCwIUbqBrXQ7yqX4zbsAZzQ83mi5/rvaVHL9neRCg53mHHT9qTgqUADp+WollVBvWSEGLgADUwpXh+LXGkcZIwKEFqtrBWaq14JCeZ0SVHL9nMbgASo6//9sL4LSV+hsdf+pVjPhTr2aPLFdnzpofb46QRePoWnB2sUDLfeTQAlXtWMqGWg52HIf0PK+ROn5Gzlz79/8BjmtzbjfLoIYAAAAASUVORK5CYII=;" parent="1" vertex="1">
          <mxGeometry x="50" y="160" width="680" height="512" as="geometry" />
        </mxCell>
        <mxCell id="W_Ust1E5zeHQnDOJcLUH-3" value="Strategies Panel" style="swimlane;whiteSpace=wrap;html=1;fillColor=#647687;strokeColor=#314354;fontColor=#ffffff;" parent="1" vertex="1">
          <mxGeometry x="760" y="160" width="350" height="510" as="geometry" />
        </mxCell>
        <mxCell id="W_Ust1E5zeHQnDOJcLUH-4" value="List of Strategies" style="swimlane;whiteSpace=wrap;html=1;" parent="W_Ust1E5zeHQnDOJcLUH-3" vertex="1">
          <mxGeometry x="20" y="40" width="310" height="450" as="geometry" />
        </mxCell>
        <mxCell id="W_Ust1E5zeHQnDOJcLUH-14" value="" style="group;fillColor=#f8cecc;strokeColor=#b85450;strokeWidth=5;" parent="W_Ust1E5zeHQnDOJcLUH-4" vertex="1" connectable="0">
          <mxGeometry x="20" y="45" width="270" height="60" as="geometry" />
        </mxCell>
        <mxCell id="W_Ust1E5zeHQnDOJcLUH-15" value="" style="rounded=0;whiteSpace=wrap;html=1;" parent="W_Ust1E5zeHQnDOJcLUH-14" vertex="1">
          <mxGeometry width="270" height="60" as="geometry" />
        </mxCell>
        <mxCell id="W_Ust1E5zeHQnDOJcLUH-16" value="Strategy Name 1" style="text;html=1;align=center;verticalAlign=middle;whiteSpace=wrap;rounded=0;" parent="W_Ust1E5zeHQnDOJcLUH-14" vertex="1">
          <mxGeometry x="20" y="15" width="110" height="30" as="geometry" />
        </mxCell>
        <mxCell id="W_Ust1E5zeHQnDOJcLUH-17" value="" style="shape=image;verticalLabelPosition=bottom;labelBackgroundColor=default;verticalAlign=top;aspect=fixed;imageAspect=0;image=data:image/svg+xml,PHN2ZyB4bWxucz0iaHR0cDovL3d3dy53My5vcmcvMjAwMC9zdmciIGZpbGw9IiM1ZjYzNjgiIHdpZHRoPSIyNHB4IiB2aWV3Qm94PSIwIC05NjAgOTYwIDk2MCIgaGVpZ2h0PSIyNHB4Ij48cGF0aCBkPSJtMzcwLTgwLTE2LTEyOHEtMTMtNS0yNC41LTEyVDMwNy0yMzVsLTExOSA1MEw3OC0zNzVsMTAzLTc4cS0xLTctMS0xMy41di0yN3EwLTYuNSAxLTEzLjVMNzgtNTg1bDExMC0xOTAgMTE5IDUwcTExLTggMjMtMTV0MjQtMTJsMTYtMTI4aDIyMGwxNiAxMjhxMTMgNSAyNC41IDEydDIyLjUgMTVsMTE5LTUwIDExMCAxOTAtMTAzIDc4cTEgNyAxIDEzLjV2MjdxMCA2LjUtMiAxMy41bDEwMyA3OC0xMTAgMTkwLTExOC01MHEtMTEgOC0yMyAxNXQtMjQgMTJMNTkwLTgwSDM3MFptNzAtODBoNzlsMTQtMTA2cTMxLTggNTcuNS0yMy41VDYzOS0zMjdsOTkgNDEgMzktNjgtODYtNjVxNS0xNCA3LTI5LjV0Mi0zMS41cTAtMTYtMi0zMS41dC03LTI5LjVsODYtNjUtMzktNjgtOTkgNDJxLTIyLTIzLTQ4LjUtMzguNVQ1MzMtNjk0bC0xMy0xMDZoLTc5bC0xNCAxMDZxLTMxIDgtNTcuNSAyMy41VDMyMS02MzNsLTk5LTQxLTM5IDY4IDg2IDY0cS01IDE1LTcgMzB0LTIgMzJxMCAxNiAyIDMxdDcgMzBsLTg2IDY1IDM5IDY4IDk5LTQycTIyIDIzIDQ4LjUgMzguNVQ0MjctMjY2bDEzIDEwNlptNDItMTgwcTU4IDAgOTktNDF0NDEtOTlxMC01OC00MS05OXQtOTktNDFxLTU5IDAtOTkuNSA0MVQzNDItNDgwcTAgNTggNDAuNSA5OXQ5OS41IDQxWm0tMi0xNDBaIi8+PC9zdmc+;" parent="W_Ust1E5zeHQnDOJcLUH-14" vertex="1">
          <mxGeometry x="220" y="18" width="24" height="24" as="geometry" />
        </mxCell>
        <mxCell id="W_Ust1E5zeHQnDOJcLUH-18" value="" style="shape=image;verticalLabelPosition=bottom;labelBackgroundColor=default;verticalAlign=top;aspect=fixed;imageAspect=0;image=data:image/svg+xml,PHN2ZyB4bWxucz0iaHR0cDovL3d3dy53My5vcmcvMjAwMC9zdmciIGZpbGw9IiM1ZjYzNjgiIHdpZHRoPSIyNHB4IiB2aWV3Qm94PSIwIC05NjAgOTYwIDk2MCIgaGVpZ2h0PSIyNHB4Ij48cGF0aCBkPSJNMzIwLTY0MHYzMjAtMzIwWm0tODAgNDAwdi00ODBoNDgwdjQ4MEgyNDBabTgwLTgwaDMyMHYtMzIwSDMyMHYzMjBaIi8+PC9zdmc+;" parent="W_Ust1E5zeHQnDOJcLUH-14" vertex="1">
          <mxGeometry x="180" y="18" width="24" height="24" as="geometry" />
        </mxCell>
        <mxCell id="W_Ust1E5zeHQnDOJcLUH-11" value="" style="shape=image;verticalLabelPosition=bottom;labelBackgroundColor=default;verticalAlign=top;aspect=fixed;imageAspect=0;image=data:image/svg+xml,PHN2ZyB4bWxucz0iaHR0cDovL3d3dy53My5vcmcvMjAwMC9zdmciIGZpbGw9IiM1ZjYzNjgiIHdpZHRoPSIyNHB4IiB2aWV3Qm94PSIwIC05NjAgOTYwIDk2MCIgaGVpZ2h0PSIyNHB4Ij48cGF0aCBkPSJNMjAwLTMxMnYtMzM2bDI0MCAxNjgtMjQwIDE2OFptMzIwLTh2LTMyMGg4MHYzMjBoLTgwWm0xNjAgMHYtMzIwaDgwdjMyMGgtODBaIi8+PC9zdmc+;" parent="W_Ust1E5zeHQnDOJcLUH-14" vertex="1">
          <mxGeometry x="150" y="18" width="24" height="24" as="geometry" />
        </mxCell>
        <mxCell id="W_Ust1E5zeHQnDOJcLUH-7" value="" style="group;fillColor=#d5e8d4;strokeColor=#82b366;strokeWidth=5;" parent="W_Ust1E5zeHQnDOJcLUH-4" vertex="1" connectable="0">
          <mxGeometry x="20" y="120" width="270" height="60" as="geometry" />
        </mxCell>
        <mxCell id="W_Ust1E5zeHQnDOJcLUH-5" value="" style="rounded=0;whiteSpace=wrap;html=1;" parent="W_Ust1E5zeHQnDOJcLUH-7" vertex="1">
          <mxGeometry width="270" height="60" as="geometry" />
        </mxCell>
        <mxCell id="W_Ust1E5zeHQnDOJcLUH-6" value="Strategy Name 2" style="text;html=1;align=center;verticalAlign=middle;whiteSpace=wrap;rounded=0;" parent="W_Ust1E5zeHQnDOJcLUH-7" vertex="1">
          <mxGeometry x="20" y="15" width="110" height="30" as="geometry" />
        </mxCell>
        <mxCell id="W_Ust1E5zeHQnDOJcLUH-8" value="" style="shape=image;verticalLabelPosition=bottom;labelBackgroundColor=default;verticalAlign=top;aspect=fixed;imageAspect=0;image=data:image/svg+xml,PHN2ZyB4bWxucz0iaHR0cDovL3d3dy53My5vcmcvMjAwMC9zdmciIGZpbGw9IiM1ZjYzNjgiIHdpZHRoPSIyNHB4IiB2aWV3Qm94PSIwIC05NjAgOTYwIDk2MCIgaGVpZ2h0PSIyNHB4Ij48cGF0aCBkPSJtMzcwLTgwLTE2LTEyOHEtMTMtNS0yNC41LTEyVDMwNy0yMzVsLTExOSA1MEw3OC0zNzVsMTAzLTc4cS0xLTctMS0xMy41di0yN3EwLTYuNSAxLTEzLjVMNzgtNTg1bDExMC0xOTAgMTE5IDUwcTExLTggMjMtMTV0MjQtMTJsMTYtMTI4aDIyMGwxNiAxMjhxMTMgNSAyNC41IDEydDIyLjUgMTVsMTE5LTUwIDExMCAxOTAtMTAzIDc4cTEgNyAxIDEzLjV2MjdxMCA2LjUtMiAxMy41bDEwMyA3OC0xMTAgMTkwLTExOC01MHEtMTEgOC0yMyAxNXQtMjQgMTJMNTkwLTgwSDM3MFptNzAtODBoNzlsMTQtMTA2cTMxLTggNTcuNS0yMy41VDYzOS0zMjdsOTkgNDEgMzktNjgtODYtNjVxNS0xNCA3LTI5LjV0Mi0zMS41cTAtMTYtMi0zMS41dC03LTI5LjVsODYtNjUtMzktNjgtOTkgNDJxLTIyLTIzLTQ4LjUtMzguNVQ1MzMtNjk0bC0xMy0xMDZoLTc5bC0xNCAxMDZxLTMxIDgtNTcuNSAyMy41VDMyMS02MzNsLTk5LTQxLTM5IDY4IDg2IDY0cS01IDE1LTcgMzB0LTIgMzJxMCAxNiAyIDMxdDcgMzBsLTg2IDY1IDM5IDY4IDk5LTQycTIyIDIzIDQ4LjUgMzguNVQ0MjctMjY2bDEzIDEwNlptNDItMTgwcTU4IDAgOTktNDF0NDEtOTlxMC01OC00MS05OXQtOTktNDFxLTU5IDAtOTkuNSA0MVQzNDItNDgwcTAgNTggNDAuNSA5OXQ5OS41IDQxWm0tMi0xNDBaIi8+PC9zdmc+;" parent="W_Ust1E5zeHQnDOJcLUH-7" vertex="1">
          <mxGeometry x="220" y="18" width="24" height="24" as="geometry" />
        </mxCell>
        <mxCell id="W_Ust1E5zeHQnDOJcLUH-9" value="" style="shape=image;verticalLabelPosition=bottom;labelBackgroundColor=default;verticalAlign=top;aspect=fixed;imageAspect=0;image=data:image/svg+xml,PHN2ZyB4bWxucz0iaHR0cDovL3d3dy53My5vcmcvMjAwMC9zdmciIGZpbGw9IiM1ZjYzNjgiIHdpZHRoPSIyNHB4IiB2aWV3Qm94PSIwIC05NjAgOTYwIDk2MCIgaGVpZ2h0PSIyNHB4Ij48cGF0aCBkPSJNMzIwLTY0MHYzMjAtMzIwWm0tODAgNDAwdi00ODBoNDgwdjQ4MEgyNDBabTgwLTgwaDMyMHYtMzIwSDMyMHYzMjBaIi8+PC9zdmc+;" parent="W_Ust1E5zeHQnDOJcLUH-7" vertex="1">
          <mxGeometry x="180" y="18" width="24" height="24" as="geometry" />
        </mxCell>
        <mxCell id="W_Ust1E5zeHQnDOJcLUH-13" value="" style="shape=image;verticalLabelPosition=bottom;labelBackgroundColor=default;verticalAlign=top;aspect=fixed;imageAspect=0;image=data:image/svg+xml,PHN2ZyB4bWxucz0iaHR0cDovL3d3dy53My5vcmcvMjAwMC9zdmciIGZpbGw9IiM1ZjYzNjgiIHdpZHRoPSIyNHB4IiB2aWV3Qm94PSIwIC05NjAgOTYwIDk2MCIgaGVpZ2h0PSIyNHB4Ij48cGF0aCBkPSJNNTIwLTIwMHYtNTYwaDI0MHY1NjBINTIwWm0tMzIwIDB2LTU2MGgyNDB2NTYwSDIwMFptNDAwLTgwaDgwdi00MDBoLTgwdjQwMFptLTMyMCAwaDgwdi00MDBoLTgwdjQwMFptMC00MDB2NDAwLTQwMFptMzIwIDB2NDAwLTQwMFoiLz48L3N2Zz4=;" parent="W_Ust1E5zeHQnDOJcLUH-7" vertex="1">
          <mxGeometry x="149" y="18" width="24" height="24" as="geometry" />
        </mxCell>
        <mxCell id="W_Ust1E5zeHQnDOJcLUH-19" value="" style="group;fillColor=#d5e8d4;strokeColor=#82b366;strokeWidth=5;" parent="W_Ust1E5zeHQnDOJcLUH-4" vertex="1" connectable="0">
          <mxGeometry x="20" y="200" width="270" height="60" as="geometry" />
        </mxCell>
        <mxCell id="W_Ust1E5zeHQnDOJcLUH-20" value="" style="rounded=0;whiteSpace=wrap;html=1;fillColor=#fff2cc;strokeColor=#d6b656;" parent="W_Ust1E5zeHQnDOJcLUH-19" vertex="1">
          <mxGeometry width="270" height="60" as="geometry" />
        </mxCell>
        <mxCell id="W_Ust1E5zeHQnDOJcLUH-21" value="Strategy Name 3" style="text;html=1;align=center;verticalAlign=middle;whiteSpace=wrap;rounded=0;" parent="W_Ust1E5zeHQnDOJcLUH-19" vertex="1">
          <mxGeometry x="20" y="15" width="110" height="30" as="geometry" />
        </mxCell>
        <mxCell id="W_Ust1E5zeHQnDOJcLUH-22" value="" style="shape=image;verticalLabelPosition=bottom;labelBackgroundColor=default;verticalAlign=top;aspect=fixed;imageAspect=0;image=data:image/svg+xml,PHN2ZyB4bWxucz0iaHR0cDovL3d3dy53My5vcmcvMjAwMC9zdmciIGZpbGw9IiM1ZjYzNjgiIHdpZHRoPSIyNHB4IiB2aWV3Qm94PSIwIC05NjAgOTYwIDk2MCIgaGVpZ2h0PSIyNHB4Ij48cGF0aCBkPSJtMzcwLTgwLTE2LTEyOHEtMTMtNS0yNC41LTEyVDMwNy0yMzVsLTExOSA1MEw3OC0zNzVsMTAzLTc4cS0xLTctMS0xMy41di0yN3EwLTYuNSAxLTEzLjVMNzgtNTg1bDExMC0xOTAgMTE5IDUwcTExLTggMjMtMTV0MjQtMTJsMTYtMTI4aDIyMGwxNiAxMjhxMTMgNSAyNC41IDEydDIyLjUgMTVsMTE5LTUwIDExMCAxOTAtMTAzIDc4cTEgNyAxIDEzLjV2MjdxMCA2LjUtMiAxMy41bDEwMyA3OC0xMTAgMTkwLTExOC01MHEtMTEgOC0yMyAxNXQtMjQgMTJMNTkwLTgwSDM3MFptNzAtODBoNzlsMTQtMTA2cTMxLTggNTcuNS0yMy41VDYzOS0zMjdsOTkgNDEgMzktNjgtODYtNjVxNS0xNCA3LTI5LjV0Mi0zMS41cTAtMTYtMi0zMS41dC03LTI5LjVsODYtNjUtMzktNjgtOTkgNDJxLTIyLTIzLTQ4LjUtMzguNVQ1MzMtNjk0bC0xMy0xMDZoLTc5bC0xNCAxMDZxLTMxIDgtNTcuNSAyMy41VDMyMS02MzNsLTk5LTQxLTM5IDY4IDg2IDY0cS01IDE1LTcgMzB0LTIgMzJxMCAxNiAyIDMxdDcgMzBsLTg2IDY1IDM5IDY4IDk5LTQycTIyIDIzIDQ4LjUgMzguNVQ0MjctMjY2bDEzIDEwNlptNDItMTgwcTU4IDAgOTktNDF0NDEtOTlxMC01OC00MS05OXQtOTktNDFxLTU5IDAtOTkuNSA0MVQzNDItNDgwcTAgNTggNDAuNSA5OXQ5OS41IDQxWm0tMi0xNDBaIi8+PC9zdmc+;" parent="W_Ust1E5zeHQnDOJcLUH-19" vertex="1">
          <mxGeometry x="220" y="18" width="24" height="24" as="geometry" />
        </mxCell>
        <mxCell id="W_Ust1E5zeHQnDOJcLUH-23" value="" style="shape=image;verticalLabelPosition=bottom;labelBackgroundColor=default;verticalAlign=top;aspect=fixed;imageAspect=0;image=data:image/svg+xml,PHN2ZyB4bWxucz0iaHR0cDovL3d3dy53My5vcmcvMjAwMC9zdmciIGZpbGw9IiM1ZjYzNjgiIHdpZHRoPSIyNHB4IiB2aWV3Qm94PSIwIC05NjAgOTYwIDk2MCIgaGVpZ2h0PSIyNHB4Ij48cGF0aCBkPSJNMzIwLTY0MHYzMjAtMzIwWm0tODAgNDAwdi00ODBoNDgwdjQ4MEgyNDBabTgwLTgwaDMyMHYtMzIwSDMyMHYzMjBaIi8+PC9zdmc+;" parent="W_Ust1E5zeHQnDOJcLUH-19" vertex="1">
          <mxGeometry x="180" y="18" width="24" height="24" as="geometry" />
        </mxCell>
        <mxCell id="W_Ust1E5zeHQnDOJcLUH-10" value="" style="shape=image;verticalLabelPosition=bottom;labelBackgroundColor=default;verticalAlign=top;aspect=fixed;imageAspect=0;image=data:image/svg+xml,PHN2ZyB4bWxucz0iaHR0cDovL3d3dy53My5vcmcvMjAwMC9zdmciIGZpbGw9IiM1ZjYzNjgiIHdpZHRoPSIyNHB4IiB2aWV3Qm94PSIwIC05NjAgOTYwIDk2MCIgaGVpZ2h0PSIyNHB4Ij48cGF0aCBkPSJNMzIwLTIwMHYtNTYwbDQ0MCAyODAtNDQwIDI4MFptODAtMjgwWm0wIDEzNCAyMTAtMTM0LTIxMC0xMzR2MjY4WiIvPjwvc3ZnPg==;" parent="W_Ust1E5zeHQnDOJcLUH-19" vertex="1">
          <mxGeometry x="150" y="18" width="24" height="24" as="geometry" />
        </mxCell>
        <mxCell id="W_Ust1E5zeHQnDOJcLUH-25" value="Strategy Setting" style="swimlane;whiteSpace=wrap;html=1;" parent="1" vertex="1">
          <mxGeometry x="1175" y="230" width="200" height="320" as="geometry" />
        </mxCell>
        <mxCell id="W_Ust1E5zeHQnDOJcLUH-27" value="&lt;span style=&quot;color: rgb(0, 0, 0); font-family: Helvetica; font-size: 12px; font-style: normal; font-variant-ligatures: normal; font-variant-caps: normal; font-weight: 400; letter-spacing: normal; orphans: 2; text-align: center; text-indent: 0px; text-transform: none; widows: 2; word-spacing: 0px; -webkit-text-stroke-width: 0px; white-space: normal; background-color: rgb(251, 251, 251); text-decoration-thickness: initial; text-decoration-style: initial; text-decoration-color: initial; display: inline !important; float: none;&quot;&gt;Strategy Name 1&lt;/span&gt;" style="text;whiteSpace=wrap;html=1;" parent="W_Ust1E5zeHQnDOJcLUH-25" vertex="1">
          <mxGeometry x="15" y="30" width="105" height="30" as="geometry" />
        </mxCell>
        <mxCell id="W_Ust1E5zeHQnDOJcLUH-28" value="float" style="rounded=0;whiteSpace=wrap;html=1;" parent="W_Ust1E5zeHQnDOJcLUH-25" vertex="1">
          <mxGeometry x="65" y="103" width="120" height="30" as="geometry" />
        </mxCell>
        <mxCell id="W_Ust1E5zeHQnDOJcLUH-30" value="float" style="rounded=0;whiteSpace=wrap;html=1;" parent="W_Ust1E5zeHQnDOJcLUH-25" vertex="1">
          <mxGeometry x="65" y="145" width="120" height="30" as="geometry" />
        </mxCell>
        <mxCell id="W_Ust1E5zeHQnDOJcLUH-31" value="amount per operation" style="text;html=1;align=center;verticalAlign=middle;whiteSpace=wrap;rounded=0;" parent="W_Ust1E5zeHQnDOJcLUH-25" vertex="1">
          <mxGeometry y="143" width="60" height="30" as="geometry" />
        </mxCell>
        <mxCell id="W_Ust1E5zeHQnDOJcLUH-32" value="int %" style="rounded=0;whiteSpace=wrap;html=1;" parent="W_Ust1E5zeHQnDOJcLUH-25" vertex="1">
          <mxGeometry x="65" y="230" width="120" height="30" as="geometry" />
        </mxCell>
        <mxCell id="W_Ust1E5zeHQnDOJcLUH-33" value="SL" style="text;html=1;align=center;verticalAlign=middle;whiteSpace=wrap;rounded=0;" parent="W_Ust1E5zeHQnDOJcLUH-25" vertex="1">
          <mxGeometry y="230" width="60" height="30" as="geometry" />
        </mxCell>
        <mxCell id="W_Ust1E5zeHQnDOJcLUH-34" value="int %" style="rounded=0;whiteSpace=wrap;html=1;" parent="W_Ust1E5zeHQnDOJcLUH-25" vertex="1">
          <mxGeometry x="65" y="270" width="120" height="30" as="geometry" />
        </mxCell>
        <mxCell id="W_Ust1E5zeHQnDOJcLUH-35" value="TP" style="text;html=1;align=center;verticalAlign=middle;whiteSpace=wrap;rounded=0;" parent="W_Ust1E5zeHQnDOJcLUH-25" vertex="1">
          <mxGeometry y="268" width="60" height="30" as="geometry" />
        </mxCell>
        <mxCell id="W_Ust1E5zeHQnDOJcLUH-29" value="total margin" style="text;html=1;align=center;verticalAlign=middle;whiteSpace=wrap;rounded=0;" parent="W_Ust1E5zeHQnDOJcLUH-25" vertex="1">
          <mxGeometry y="103" width="60" height="30" as="geometry" />
        </mxCell>
        <mxCell id="W_Ust1E5zeHQnDOJcLUH-36" value="Wallet" style="text;html=1;align=center;verticalAlign=middle;whiteSpace=wrap;rounded=0;" parent="W_Ust1E5zeHQnDOJcLUH-25" vertex="1">
          <mxGeometry x="5" y="60" width="60" height="30" as="geometry" />
        </mxCell>
        <mxCell id="W_Ust1E5zeHQnDOJcLUH-38" value="&amp;nbsp; selected wallet" style="rounded=0;whiteSpace=wrap;html=1;align=left;" parent="W_Ust1E5zeHQnDOJcLUH-25" vertex="1">
          <mxGeometry x="65" y="60" width="120" height="30" as="geometry" />
        </mxCell>
        <mxCell id="W_Ust1E5zeHQnDOJcLUH-47" value="" style="shape=image;verticalLabelPosition=bottom;labelBackgroundColor=default;verticalAlign=top;aspect=fixed;imageAspect=0;image=data:image/svg+xml,PHN2ZyB4bWxucz0iaHR0cDovL3d3dy53My5vcmcvMjAwMC9zdmciIGZpbGw9IiM1ZjYzNjgiIHdpZHRoPSIyNHB4IiB2aWV3Qm94PSIwIC05NjAgOTYwIDk2MCIgaGVpZ2h0PSIyNHB4Ij48cGF0aCBkPSJNNDgwLTM2MCAyODAtNTYwaDQwMEw0ODAtMzYwWiIvPjwvc3ZnPg==;" parent="W_Ust1E5zeHQnDOJcLUH-25" vertex="1">
          <mxGeometry x="155" y="63" width="24" height="24" as="geometry" />
        </mxCell>
        <mxCell id="W_Ust1E5zeHQnDOJcLUH-48" value="1-50" style="rounded=0;whiteSpace=wrap;html=1;" parent="W_Ust1E5zeHQnDOJcLUH-25" vertex="1">
          <mxGeometry x="65" y="190" width="120" height="30" as="geometry" />
        </mxCell>
        <mxCell id="W_Ust1E5zeHQnDOJcLUH-49" value="Average" style="text;html=1;align=center;verticalAlign=middle;whiteSpace=wrap;rounded=0;" parent="W_Ust1E5zeHQnDOJcLUH-25" vertex="1">
          <mxGeometry y="190" width="60" height="30" as="geometry" />
        </mxCell>
        <mxCell id="W_Ust1E5zeHQnDOJcLUH-26" style="edgeStyle=orthogonalEdgeStyle;rounded=0;orthogonalLoop=1;jettySize=auto;html=1;exitX=1;exitY=0.5;exitDx=0;exitDy=0;fillColor=#e1d5e7;strokeColor=#9673a6;strokeWidth=3;entryX=0.5;entryY=0;entryDx=0;entryDy=0;" parent="1" source="W_Ust1E5zeHQnDOJcLUH-17" target="W_Ust1E5zeHQnDOJcLUH-25" edge="1">
          <mxGeometry relative="1" as="geometry">
            <mxPoint x="1170" y="300" as="targetPoint" />
            <Array as="points">
              <mxPoint x="1140" y="275" />
              <mxPoint x="1140" y="190" />
              <mxPoint x="1275" y="190" />
            </Array>
          </mxGeometry>
        </mxCell>
        <mxCell id="W_Ust1E5zeHQnDOJcLUH-43" value="Selected wallet" style="swimlane;whiteSpace=wrap;html=1;" parent="1" vertex="1">
          <mxGeometry x="1410" y="250" width="120" height="130" as="geometry" />
        </mxCell>
        <mxCell id="W_Ust1E5zeHQnDOJcLUH-39" value="USDT-M" style="rounded=0;whiteSpace=wrap;html=1;" parent="W_Ust1E5zeHQnDOJcLUH-43" vertex="1">
          <mxGeometry y="24" width="120" height="37" as="geometry" />
        </mxCell>
        <mxCell id="W_Ust1E5zeHQnDOJcLUH-40" value="USDT-COIN" style="rounded=0;whiteSpace=wrap;html=1;" parent="W_Ust1E5zeHQnDOJcLUH-43" vertex="1">
          <mxGeometry y="61" width="120" height="37" as="geometry" />
        </mxCell>
        <mxCell id="W_Ust1E5zeHQnDOJcLUH-41" value="SPOT" style="rounded=0;whiteSpace=wrap;html=1;" parent="W_Ust1E5zeHQnDOJcLUH-43" vertex="1">
          <mxGeometry y="98" width="120" height="37" as="geometry" />
        </mxCell>
        <mxCell id="W_Ust1E5zeHQnDOJcLUH-46" style="edgeStyle=orthogonalEdgeStyle;rounded=0;orthogonalLoop=1;jettySize=auto;html=1;exitX=1;exitY=0.5;exitDx=0;exitDy=0;entryX=0.5;entryY=0;entryDx=0;entryDy=0;strokeWidth=3;fillColor=#f8cecc;strokeColor=#b85450;" parent="1" source="W_Ust1E5zeHQnDOJcLUH-38" target="W_Ust1E5zeHQnDOJcLUH-43" edge="1">
          <mxGeometry relative="1" as="geometry" />
        </mxCell>
        <mxCell id="W_Ust1E5zeHQnDOJcLUH-50" value="Table" style="swimlane;whiteSpace=wrap;html=1;fillColor=#dae8fc;strokeColor=#6c8ebf;" parent="1" vertex="1">
          <mxGeometry x="50" y="700" width="730" height="200" as="geometry" />
        </mxCell>
        <mxCell id="W_Ust1E5zeHQnDOJcLUH-51" value="" style="shape=table;startSize=0;container=1;collapsible=0;childLayout=tableLayout;fontSize=16;" parent="W_Ust1E5zeHQnDOJcLUH-50" vertex="1">
          <mxGeometry x="15" y="50" width="695" height="120" as="geometry" />
        </mxCell>
        <mxCell id="W_Ust1E5zeHQnDOJcLUH-52" value="" style="shape=tableRow;horizontal=0;startSize=0;swimlaneHead=0;swimlaneBody=0;strokeColor=inherit;top=0;left=0;bottom=0;right=0;collapsible=0;dropTarget=0;fillColor=none;points=[[0,0.5],[1,0.5]];portConstraint=eastwest;fontSize=16;" parent="W_Ust1E5zeHQnDOJcLUH-51" vertex="1">
          <mxGeometry width="695" height="40" as="geometry" />
        </mxCell>
        <mxCell id="W_Ust1E5zeHQnDOJcLUH-53" value="Strategy name" style="shape=partialRectangle;html=1;whiteSpace=wrap;connectable=0;strokeColor=inherit;overflow=hidden;fillColor=none;top=0;left=0;bottom=0;right=0;pointerEvents=1;fontSize=16;" parent="W_Ust1E5zeHQnDOJcLUH-52" vertex="1">
          <mxGeometry width="116" height="40" as="geometry">
            <mxRectangle width="116" height="40" as="alternateBounds" />
          </mxGeometry>
        </mxCell>
        <mxCell id="W_Ust1E5zeHQnDOJcLUH-54" value="Total Closed Trades" style="shape=partialRectangle;html=1;whiteSpace=wrap;connectable=0;strokeColor=inherit;overflow=hidden;fillColor=none;top=0;left=0;bottom=0;right=0;pointerEvents=1;fontSize=16;" parent="W_Ust1E5zeHQnDOJcLUH-52" vertex="1">
          <mxGeometry x="116" width="116" height="40" as="geometry">
            <mxRectangle width="116" height="40" as="alternateBounds" />
          </mxGeometry>
        </mxCell>
        <mxCell id="W_Ust1E5zeHQnDOJcLUH-55" value="Net Profit" style="shape=partialRectangle;html=1;whiteSpace=wrap;connectable=0;strokeColor=inherit;overflow=hidden;fillColor=none;top=0;left=0;bottom=0;right=0;pointerEvents=1;fontSize=16;" parent="W_Ust1E5zeHQnDOJcLUH-52" vertex="1">
          <mxGeometry x="232" width="116" height="40" as="geometry">
            <mxRectangle width="116" height="40" as="alternateBounds" />
          </mxGeometry>
        </mxCell>
        <mxCell id="W_Ust1E5zeHQnDOJcLUH-64" value="Percent Profitable" style="shape=partialRectangle;html=1;whiteSpace=wrap;connectable=0;strokeColor=inherit;overflow=hidden;fillColor=none;top=0;left=0;bottom=0;right=0;pointerEvents=1;fontSize=16;" parent="W_Ust1E5zeHQnDOJcLUH-52" vertex="1">
          <mxGeometry x="348" width="116" height="40" as="geometry">
            <mxRectangle width="116" height="40" as="alternateBounds" />
          </mxGeometry>
        </mxCell>
        <mxCell id="W_Ust1E5zeHQnDOJcLUH-67" value="Avg Trade" style="shape=partialRectangle;html=1;whiteSpace=wrap;connectable=0;strokeColor=inherit;overflow=hidden;fillColor=none;top=0;left=0;bottom=0;right=0;pointerEvents=1;fontSize=16;" parent="W_Ust1E5zeHQnDOJcLUH-52" vertex="1">
          <mxGeometry x="464" width="115" height="40" as="geometry">
            <mxRectangle width="115" height="40" as="alternateBounds" />
          </mxGeometry>
        </mxCell>
        <mxCell id="W_Ust1E5zeHQnDOJcLUH-70" value="Max Drawdown" style="shape=partialRectangle;html=1;whiteSpace=wrap;connectable=0;strokeColor=inherit;overflow=hidden;fillColor=none;top=0;left=0;bottom=0;right=0;pointerEvents=1;fontSize=16;" parent="W_Ust1E5zeHQnDOJcLUH-52" vertex="1">
          <mxGeometry x="579" width="116" height="40" as="geometry">
            <mxRectangle width="116" height="40" as="alternateBounds" />
          </mxGeometry>
        </mxCell>
        <mxCell id="W_Ust1E5zeHQnDOJcLUH-56" value="" style="shape=tableRow;horizontal=0;startSize=0;swimlaneHead=0;swimlaneBody=0;strokeColor=inherit;top=0;left=0;bottom=0;right=0;collapsible=0;dropTarget=0;fillColor=none;points=[[0,0.5],[1,0.5]];portConstraint=eastwest;fontSize=16;" parent="W_Ust1E5zeHQnDOJcLUH-51" vertex="1">
          <mxGeometry y="40" width="695" height="40" as="geometry" />
        </mxCell>
        <mxCell id="W_Ust1E5zeHQnDOJcLUH-57" value="BFS strategy" style="shape=partialRectangle;html=1;whiteSpace=wrap;connectable=0;strokeColor=inherit;overflow=hidden;fillColor=none;top=0;left=0;bottom=0;right=0;pointerEvents=1;fontSize=16;" parent="W_Ust1E5zeHQnDOJcLUH-56" vertex="1">
          <mxGeometry width="116" height="40" as="geometry">
            <mxRectangle width="116" height="40" as="alternateBounds" />
          </mxGeometry>
        </mxCell>
        <mxCell id="W_Ust1E5zeHQnDOJcLUH-58" value="541" style="shape=partialRectangle;html=1;whiteSpace=wrap;connectable=0;strokeColor=inherit;overflow=hidden;fillColor=none;top=0;left=0;bottom=0;right=0;pointerEvents=1;fontSize=16;" parent="W_Ust1E5zeHQnDOJcLUH-56" vertex="1">
          <mxGeometry x="116" width="116" height="40" as="geometry">
            <mxRectangle width="116" height="40" as="alternateBounds" />
          </mxGeometry>
        </mxCell>
        <mxCell id="W_Ust1E5zeHQnDOJcLUH-59" value="251 USD (3%)" style="shape=partialRectangle;html=1;whiteSpace=wrap;connectable=0;strokeColor=inherit;overflow=hidden;fillColor=none;top=0;left=0;bottom=0;right=0;pointerEvents=1;fontSize=16;" parent="W_Ust1E5zeHQnDOJcLUH-56" vertex="1">
          <mxGeometry x="232" width="116" height="40" as="geometry">
            <mxRectangle width="116" height="40" as="alternateBounds" />
          </mxGeometry>
        </mxCell>
        <mxCell id="W_Ust1E5zeHQnDOJcLUH-65" value="66%" style="shape=partialRectangle;html=1;whiteSpace=wrap;connectable=0;strokeColor=inherit;overflow=hidden;fillColor=none;top=0;left=0;bottom=0;right=0;pointerEvents=1;fontSize=16;" parent="W_Ust1E5zeHQnDOJcLUH-56" vertex="1">
          <mxGeometry x="348" width="116" height="40" as="geometry">
            <mxRectangle width="116" height="40" as="alternateBounds" />
          </mxGeometry>
        </mxCell>
        <mxCell id="W_Ust1E5zeHQnDOJcLUH-68" value="0.35 USD" style="shape=partialRectangle;html=1;whiteSpace=wrap;connectable=0;strokeColor=inherit;overflow=hidden;fillColor=none;top=0;left=0;bottom=0;right=0;pointerEvents=1;fontSize=16;" parent="W_Ust1E5zeHQnDOJcLUH-56" vertex="1">
          <mxGeometry x="464" width="115" height="40" as="geometry">
            <mxRectangle width="115" height="40" as="alternateBounds" />
          </mxGeometry>
        </mxCell>
        <mxCell id="W_Ust1E5zeHQnDOJcLUH-71" value="31 USD (0.1%)" style="shape=partialRectangle;html=1;whiteSpace=wrap;connectable=0;strokeColor=inherit;overflow=hidden;fillColor=none;top=0;left=0;bottom=0;right=0;pointerEvents=1;fontSize=16;" parent="W_Ust1E5zeHQnDOJcLUH-56" vertex="1">
          <mxGeometry x="579" width="116" height="40" as="geometry">
            <mxRectangle width="116" height="40" as="alternateBounds" />
          </mxGeometry>
        </mxCell>
        <mxCell id="W_Ust1E5zeHQnDOJcLUH-60" value="" style="shape=tableRow;horizontal=0;startSize=0;swimlaneHead=0;swimlaneBody=0;strokeColor=inherit;top=0;left=0;bottom=0;right=0;collapsible=0;dropTarget=0;fillColor=none;points=[[0,0.5],[1,0.5]];portConstraint=eastwest;fontSize=16;" parent="W_Ust1E5zeHQnDOJcLUH-51" vertex="1">
          <mxGeometry y="80" width="695" height="40" as="geometry" />
        </mxCell>
        <mxCell id="W_Ust1E5zeHQnDOJcLUH-61" value="..." style="shape=partialRectangle;html=1;whiteSpace=wrap;connectable=0;strokeColor=inherit;overflow=hidden;fillColor=none;top=0;left=0;bottom=0;right=0;pointerEvents=1;fontSize=16;" parent="W_Ust1E5zeHQnDOJcLUH-60" vertex="1">
          <mxGeometry width="116" height="40" as="geometry">
            <mxRectangle width="116" height="40" as="alternateBounds" />
          </mxGeometry>
        </mxCell>
        <mxCell id="W_Ust1E5zeHQnDOJcLUH-62" value="..." style="shape=partialRectangle;html=1;whiteSpace=wrap;connectable=0;strokeColor=inherit;overflow=hidden;fillColor=none;top=0;left=0;bottom=0;right=0;pointerEvents=1;fontSize=16;" parent="W_Ust1E5zeHQnDOJcLUH-60" vertex="1">
          <mxGeometry x="116" width="116" height="40" as="geometry">
            <mxRectangle width="116" height="40" as="alternateBounds" />
          </mxGeometry>
        </mxCell>
        <mxCell id="W_Ust1E5zeHQnDOJcLUH-63" value="..." style="shape=partialRectangle;html=1;whiteSpace=wrap;connectable=0;strokeColor=inherit;overflow=hidden;fillColor=none;top=0;left=0;bottom=0;right=0;pointerEvents=1;fontSize=16;" parent="W_Ust1E5zeHQnDOJcLUH-60" vertex="1">
          <mxGeometry x="232" width="116" height="40" as="geometry">
            <mxRectangle width="116" height="40" as="alternateBounds" />
          </mxGeometry>
        </mxCell>
        <mxCell id="W_Ust1E5zeHQnDOJcLUH-66" value="..." style="shape=partialRectangle;html=1;whiteSpace=wrap;connectable=0;strokeColor=inherit;overflow=hidden;fillColor=none;top=0;left=0;bottom=0;right=0;pointerEvents=1;fontSize=16;" parent="W_Ust1E5zeHQnDOJcLUH-60" vertex="1">
          <mxGeometry x="348" width="116" height="40" as="geometry">
            <mxRectangle width="116" height="40" as="alternateBounds" />
          </mxGeometry>
        </mxCell>
        <mxCell id="W_Ust1E5zeHQnDOJcLUH-69" value="..." style="shape=partialRectangle;html=1;whiteSpace=wrap;connectable=0;strokeColor=inherit;overflow=hidden;fillColor=none;top=0;left=0;bottom=0;right=0;pointerEvents=1;fontSize=16;" parent="W_Ust1E5zeHQnDOJcLUH-60" vertex="1">
          <mxGeometry x="464" width="115" height="40" as="geometry">
            <mxRectangle width="115" height="40" as="alternateBounds" />
          </mxGeometry>
        </mxCell>
        <mxCell id="W_Ust1E5zeHQnDOJcLUH-72" value="..." style="shape=partialRectangle;html=1;whiteSpace=wrap;connectable=0;strokeColor=inherit;overflow=hidden;fillColor=none;top=0;left=0;bottom=0;right=0;pointerEvents=1;fontSize=16;" parent="W_Ust1E5zeHQnDOJcLUH-60" vertex="1">
          <mxGeometry x="579" width="116" height="40" as="geometry">
            <mxRectangle width="116" height="40" as="alternateBounds" />
          </mxGeometry>
        </mxCell>
      </root>
    </mxGraphModel>
  </diagram>
</mxfile>
